<?xml version="1.0" encoding="UTF-8" standalone="no"?>
<!-- Created with Inkscape (http://www.inkscape.org/) -->

<svg
   version="1.1"
   id="svg2"
   width="1884.8914"
   height="1338.5143"
   viewBox="0 0 1884.8914 1338.5143"
   sodipodi:docname="castle2.svg"
   inkscape:version="1.2 (dc2aedaf03, 2022-05-15)"
   xmlns:inkscape="http://www.inkscape.org/namespaces/inkscape"
   xmlns:sodipodi="http://sodipodi.sourceforge.net/DTD/sodipodi-0.dtd"
   xmlns:xlink="http://www.w3.org/1999/xlink"
   xmlns="http://www.w3.org/2000/svg"
   xmlns:svg="http://www.w3.org/2000/svg">
  <defs
     id="defs6" />
  <sodipodi:namedview
     id="namedview4"
     pagecolor="#ffffff"
     bordercolor="#cccccc"
     borderopacity="1"
     inkscape:showpageshadow="0"
     inkscape:pageopacity="1"
     inkscape:pagecheckerboard="0"
     inkscape:deskcolor="#d1d1d1"
     showgrid="false"
     inkscape:zoom="0.31639558"
     inkscape:cx="1009.8118"
     inkscape:cy="938.69833"
     inkscape:window-width="1536"
     inkscape:window-height="811"
     inkscape:window-x="1912"
     inkscape:window-y="-8"
     inkscape:window-maximized="1"
     inkscape:current-layer="g8" />
  <g
     inkscape:groupmode="layer"
     inkscape:label="Image"
     id="g8">
    <image
       width="1884.8914"
       height="1338.5143"
       preserveAspectRatio="none"
       xlink:href="castle2.png"
       id="image10" />
    <path
       style="fill:none;stroke-width:1.88976;stroke:#ff0000"
       d="m 1779.418,785.40921 c 0,0 -53.7302,-312.89945 -37.9272,-379.27205 15.803,-66.37261 66.3726,-153.28913 53.7302,-205.43903 -12.6424,-52.14991 -26.8651,-121.683119 -26.8651,-121.683119"
       id="path293" />
    <ellipse
       style="fill:none;stroke:#ff0000;stroke-width:1.88976"
       id="path455"
       cx="1792.0604"
       cy="831.23792"
       rx="17.383303"
       ry="20.543903" />
    <ellipse
       style="fill:none;stroke:#ff0000;stroke-width:1.88976"
       id="path457"
       cx="1773.0968"
       cy="39.507504"
       rx="17.383303"
       ry="20.543903" />
    <path
       style="fill:none;stroke:#ff0000;stroke-width:1.88976"
       d="m 1270.5614,1259.4993 c -20.5439,-241.786 110.621,-578.38991 148.5482,-628.95951 37.9272,-50.56961 61.6317,-128.00432 52.1499,-161.19063 -9.4818,-33.1863 14.2227,-173.83302 14.2227,-173.83302"
       id="path459"
       sodipodi:nodetypes="cssc" />
    <ellipse
       style="fill:none;stroke:#ff0000;stroke-width:1.88976"
       id="path461"
       cx="1498.1246"
       cy="267.8609"
       rx="12.642402"
       ry="15.012852" />
    <ellipse
       style="fill:none;stroke:#ff0000;stroke-width:1.88976"
       id="path463"
       cx="1302.1674"
       cy="1255.5485"
       rx="18.963602"
       ry="22.914352" />
    <path
       style="fill:none;stroke:#ff0000;stroke-width:1.88976"
       d="m 1299.0068,959.24223 c 56.8908,-211.76023 12.6424,-687.43059 12.6424,-687.43059"
       id="path519" />
    <circle
       style="fill:none;stroke:#ff0000;stroke-width:1.88976"
       id="path521"
       cx="1274.5121"
       cy="275.76239"
       r="18.173452" />
    <ellipse
       style="fill:none;stroke:#ff0000;stroke-width:1.88976"
       id="path523"
       cx="1247.647"
       cy="1260.2894"
       rx="18.173452"
       ry="21.334053" />
    <path
       style="fill:none;stroke:#ff0000;stroke-width:1.88976"
       d="m 935.53773,1267.4008 c 0,0 -30.02571,-450.38559 -15.803,-500.9552 14.2227,-50.5696 39.5075,-263.91013 23.7045,-287.61463"
       id="path525" />
    <ellipse
       style="fill:none;stroke:#ff0000;stroke-width:1.88976"
       id="path527"
       cx="901.56128"
       cy="1286.3644"
       rx="18.173452"
       ry="20.543903" />
    <ellipse
       style="fill:none;stroke:#ff0000;stroke-width:1.88976"
       id="path533"
       cx="921.315"
       cy="452.75601"
       rx="18.963602"
       ry="19.753752" />
    <path
       style="fill:none;stroke:#ff0000;stroke-width:1.88976"
       d="m 937.11803,652.66399 c 9.4818,-77.43471 69.53317,-18.9636 83.75587,-75.85441 14.2227,-56.89081 45.8287,-210.17993 45.8287,-210.17993"
       id="path531" />
    <ellipse
       style="fill:none;stroke:#ff0000;stroke-width:1.88976"
       id="path529"
       cx="965.56342"
       cy="1282.4136"
       rx="18.963602"
       ry="24.494654" />
    <ellipse
       style="fill:none;stroke:#ff0000;stroke-width:1.88976"
       id="path535"
       cx="1084.0859"
       cy="352.40695"
       rx="14.222702"
       ry="18.963602" />
    <path
       style="fill:none;stroke:#ff0000;stroke-width:1.88976"
       d="m 670.04729,1297.4265 c 0,0 -23.7045,-527.8203 3.1606,-605.25501 C 700.073,614.73678 755.3835,561.00658 717.4563,485.15217 679.52909,409.29776 616.31708,330.28274 647.92309,286.03434 c 31.606,-44.24841 26.8651,-39.50751 26.8651,-39.50751"
       id="path538" />
    <ellipse
       style="fill:none;stroke:#ff0000;stroke-width:1.88976"
       id="path540"
       cx="707.97449"
       cy="1293.4757"
       rx="15.803002"
       ry="18.173452" />
    <ellipse
       style="fill:none;stroke:#ff0000;stroke-width:1.88976"
       id="path542"
       cx="686.64044"
       cy="203.06857"
       rx="16.593153"
       ry="19.753752" />
    <path
       style="fill:none;stroke:#ff0000;stroke-width:1.88976"
       d="M 679.52909,674.78819 C 719.0366,594.19288 655.82459,556.26568 614.73678,551.52478 573.64898,546.78387 502.53547,388.75385 505.69607,350.82665 c 3.1606,-37.92721 -12.6424,-83.75591 -12.6424,-83.75591"
       id="path544" />
    <ellipse
       style="fill:none;stroke:#ff0000;stroke-width:1.88976"
       id="path546"
       cx="638.44128"
       cy="1291.8954"
       rx="15.803002"
       ry="19.753752" />
    <circle
       style="fill:none;stroke:#ff0000;stroke-width:1.88976"
       id="path548"
       cx="524.65967"
       cy="222.82234"
       r="22.124203" />
    <path
       style="fill:none;stroke:#ff0000;stroke-width:1.88976"
       d="m 365.04935,965.56343 c 0,-86.91651 45.8287,-167.51182 25.2848,-254.42833 -5.58159,-23.61442 -14.88999,-78.58477 -21.22874,-100.51147"
       id="path550"
       sodipodi:nodetypes="csc" />
    <ellipse
       style="fill:none;stroke:#ff0000;stroke-width:1.88976"
       id="path552"
       cx="364.25919"
       cy="994.79901"
       rx="15.012852"
       ry="24.494654" />
    <ellipse
       style="fill:none;stroke:#ff0000;stroke-width:1.88976"
       id="path554"
       cx="464.60828"
       cy="236.25488"
       rx="20.543903"
       ry="22.914352" />
    <path
       style="fill:none;stroke:#ff0000;stroke-width:1.88976"
       d="M 88.496812,975.04523 C 91.657412,837.55911 50.569607,753.8032 102.71951,709.5548 c 52.14991,-44.24841 107.46042,-36.34691 123.26342,-97.97862 15.803,-61.63171 56.89081,-101.13921 52.14991,-175.41332 -4.7409,-74.27411 -6.3212,-123.26342 -6.3212,-123.26342"
       id="path556" />
    <ellipse
       style="fill:none;stroke:#ff0000;stroke-width:1.88976"
       id="path558"
       cx="284.45404"
       cy="256.00864"
       rx="17.383303"
       ry="18.963602" />
    <circle
       style="fill:none;stroke:#ff0000;stroke-width:1.88976"
       id="path560"
       cx="62.421856"
       cy="999.53986"
       r="15.012852" />
    <path
       style="fill:none;stroke:#ff0000;stroke-width:1.88976"
       d="m 154.86942,677.94879 c 60.05141,-31.606 113.78162,-23.7045 153.28912,-26.8651 39.50751,-3.1606 66.64375,-2.96888 60.05141,-44.24841 -1.5803,-67.95291 -21.22524,-168.01089 28.65357,-208.40791 26.56684,-21.51657 94.0046,-50.95304 97.14875,-129.85857"
       id="path562"
       sodipodi:nodetypes="cscsc" />
    <ellipse
       style="fill:none;stroke:#ff0000;stroke-width:1.88976"
       id="path565"
       cx="490.6832"
       cy="169.09213"
       rx="21.334053"
       ry="25.284803" />
    <ellipse
       style="fill:none;stroke:#ff0000;stroke-width:1.88976"
       id="path567"
       cx="124.84372"
       cy="994.79901"
       rx="15.803002"
       ry="16.593153" />
    <path
       style="fill:none;stroke:#ff0000;stroke-width:1.88976"
       d="m 105.88011,706.3942 c 42.66811,-26.86511 41.08781,-56.89081 -3.1606,-67.95291 C 58.471108,627.37919 58.471108,545.20357 85.336212,493.05367 112.20132,440.90376 169.09212,369.79025 202.27843,353.98725 c 33.1863,-15.803 69.53321,-39.50751 69.53321,-39.50751"
       id="path569" />
    <ellipse
       style="fill:none;stroke:#ff0000;stroke-width:1.88976"
       id="path571"
       cx="97.978615"
       cy="1046.9489"
       rx="14.222702"
       ry="18.173452" />
    <ellipse
       style="fill:none;stroke:#ff0000;stroke-width:1.88976"
       id="path573"
       cx="226.77309"
       cy="263.12"
       rx="18.173452"
       ry="19.753752" />
    <path
       style="fill:none;stroke:#ff0000;stroke-width:1.88976"
       d="m 1468.0989,437.74316 c 9.4818,-53.73021 -31.606,-161.19062 -31.606,-161.19062"
       id="path623" />
    <ellipse
       style="fill:none;stroke:#ff0000;stroke-width:1.88976"
       id="path625"
       cx="1430.1718"
       cy="264.70029"
       rx="12.642402"
       ry="15.012852" />
  </g>
</svg>
