<?xml version="1.0" encoding="UTF-8" standalone="no"?>
<!-- Created with Inkscape (http://www.inkscape.org/) -->

<svg
   version="1.1"
   id="svg2"
   width="1140.48"
   height="1170.9257"
   viewBox="0 0 1140.48 1170.9257"
   sodipodi:docname="nest2.svg"
   inkscape:version="1.2 (dc2aedaf03, 2022-05-15)"
   xmlns:inkscape="http://www.inkscape.org/namespaces/inkscape"
   xmlns:sodipodi="http://sodipodi.sourceforge.net/DTD/sodipodi-0.dtd"
   xmlns:xlink="http://www.w3.org/1999/xlink"
   xmlns="http://www.w3.org/2000/svg"
   xmlns:svg="http://www.w3.org/2000/svg">
  <defs
     id="defs6" />
  <sodipodi:namedview
     id="namedview4"
     pagecolor="#ffffff"
     bordercolor="#cccccc"
     borderopacity="1"
     inkscape:showpageshadow="0"
     inkscape:pageopacity="1"
     inkscape:pagecheckerboard="0"
     inkscape:deskcolor="#d1d1d1"
     showgrid="false"
     inkscape:zoom="1.0229846"
     inkscape:cx="742.43543"
     inkscape:cy="482.90073"
     inkscape:window-width="1536"
     inkscape:window-height="811"
     inkscape:window-x="-8"
     inkscape:window-y="-8"
     inkscape:window-maximized="1"
     inkscape:current-layer="g8" />
  <g
     inkscape:groupmode="layer"
     inkscape:label="Image"
     id="g8">
    <image
       width="1140.48"
       height="1170.9257"
       preserveAspectRatio="none"
       xlink:href="nest2.png"
       id="image10" />
    <path
       style="fill:none;stroke:#ff0000;stroke-width:1.88976"
       d="m 1003.9252,413.49597 c -30.30349,-69.40476 31.281,-31.28102 50.8317,-85.04527 19.5506,-53.76425 20.5281,-126.10161 20.5281,-126.10161"
       id="path1205" />
    <path
       style="fill:none;stroke:#ff0000;stroke-width:1.88976"
       d="m 1063.0954,1172.3081 c 9.6771,-200.45363 11.0595,-503.20772 -29.0312,-550.21064 C 993.97349,575.09454 920.70424,593.06624 941.44082,561.27015 962.1774,529.47406 1017.475,445.14529 1003.6506,413.3492"
       id="path293" />
    <ellipse
       style="fill:none;stroke:#ff0000;stroke-width:1.88976"
       id="path347"
       cx="1021.6223"
       cy="353.2131"
       rx="22.11902"
       ry="20.045362" />
    <ellipse
       style="fill:none;stroke:#ff0000;stroke-width:1.88976"
       id="path349"
       cx="1063.0955"
       cy="1139.8208"
       rx="19.354143"
       ry="18.662924" />
    <path
       style="fill:none;stroke:#ff0000;stroke-width:1.88976"
       d="m 948.35301,548.8282 c -60.8273,66.35707 1.38244,590.3014 1.38244,590.3014"
       id="path351"
       sodipodi:nodetypes="cc" />
    <ellipse
       style="fill:none;stroke:#ff0000;stroke-width:1.88976"
       id="path449"
       cx="959.41254"
       cy="364.27261"
       rx="17.971704"
       ry="20.045362" />
    <ellipse
       style="fill:none;stroke:#ff0000;stroke-width:1.88976"
       id="path451"
       cx="950.4267"
       cy="1130.1437"
       rx="14.515607"
       ry="18.662924" />
    <path
       style="fill:none;stroke:#ff0000;stroke-width:1.88976"
       d="M 543.29845,1014.7101 C 539.15113,895.82034 655.27599,866.78912 656.65843,782.46036 658.04087,698.13159 684.3072,446.52773 633.15697,409.20188 582.00673,371.87604 475.55895,355.28677 472.79407,288.92971 c -2.76488,-66.35706 -2.76488,-82.94633 -2.76488,-82.94633"
       id="path455" />
    <ellipse
       style="fill:none;stroke:#ff0000;stroke-width:1.88976"
       id="path457"
       cx="502.51651"
       cy="201.14485"
       rx="14.515607"
       ry="13.133168" />
    <ellipse
       style="fill:none;stroke:#ff0000;stroke-width:1.88976"
       id="path459"
       cx="543.98969"
       cy="993.97351"
       rx="11.75073"
       ry="17.971704" />
    <path
       style="fill:none;stroke:#ff0000;stroke-width:1.88976"
       d="M 389.84774,1034.0642 C 370.4936,930.38131 335.93263,608.27307 351.13945,535.00381 c 15.20683,-73.26925 2.76488,-172.80485 37.32585,-236.39703 34.56097,-63.59218 78.79901,-91.24096 78.79901,-91.24096"
       id="path461" />
    <ellipse
       style="fill:none;stroke:#ff0000;stroke-width:1.88976"
       id="path463"
       cx="425.09991"
       cy="189.39412"
       rx="17.280485"
       ry="16.589266" />
    <ellipse
       style="fill:none;stroke:#ff0000;stroke-width:1.88976"
       id="path465"
       cx="388.4653"
       cy="1020.2398"
       rx="15.206827"
       ry="13.824388" />
    <path
       style="fill:none;stroke:#ff0000;stroke-width:1.88976"
       d="M 272.34044,1046.5062 C 226.71996,884.76083 215.66045,453.43992 223.95508,424.40871 232.24972,395.3775 301.37166,218.42533 301.37166,218.42533"
       id="path467" />
    <ellipse
       style="fill:none;stroke:#ff0000;stroke-width:1.88976"
       id="path469"
       cx="305.51898"
       cy="199.07118"
       rx="12.441949"
       ry="13.824388" />
    <ellipse
       style="fill:none;stroke:#ff0000;stroke-width:1.88976"
       id="path499"
       cx="267.50189"
       cy="1030.6082"
       rx="26.957556"
       ry="22.81024" />
    <path
       style="fill:none;stroke:#ff0000;stroke-width:1.88976"
       d="m 94.005838,1056.1832 c -9.677072,-179.717 23.501462,-385.70038 0,-434.08574 C 70.504379,573.7121 29.031215,478.32382 47.002919,439.61554 64.974623,400.90725 91.24096,341.46238 99.535593,311.04873 107.83023,280.63508 138.24388,199.07119 138.24388,199.07119"
       id="path471" />
    <ellipse
       style="fill:none;stroke:#ff0000;stroke-width:1.88976"
       id="path473"
       cx="133.40535"
       cy="173.49606"
       rx="13.133168"
       ry="15.898046" />
    <ellipse
       style="fill:none;stroke:#ff0000;stroke-width:1.88976"
       id="path475"
       cx="92.623398"
       cy="1022.3135"
       rx="11.05951"
       ry="13.133168" />
    <ellipse
       style="fill:none;stroke:#ff0000;stroke-width:1.88976"
       id="path1314"
       cx="1085.5491"
       cy="137.83199"
       rx="20.039402"
       ry="21.505701" />
  </g>
</svg>
