<?xml version="1.0" encoding="UTF-8" standalone="no"?>
<!-- Created with Inkscape (http://www.inkscape.org/) -->

<svg
   version="1.1"
   id="svg656"
   width="1925.12"
   height="1285.12"
   viewBox="0 0 1925.12 1285.12"
   sodipodi:docname="carAlarm.svg"
   inkscape:version="1.2 (dc2aedaf03, 2022-05-15)"
   xmlns:inkscape="http://www.inkscape.org/namespaces/inkscape"
   xmlns:sodipodi="http://sodipodi.sourceforge.net/DTD/sodipodi-0.dtd"
   xmlns:xlink="http://www.w3.org/1999/xlink"
   xmlns="http://www.w3.org/2000/svg"
   xmlns:svg="http://www.w3.org/2000/svg">
  <defs
     id="defs660" />
  <sodipodi:namedview
     id="namedview658"
     pagecolor="#ffffff"
     bordercolor="#000000"
     borderopacity="0.25"
     inkscape:showpageshadow="2"
     inkscape:pageopacity="0.0"
     inkscape:pagecheckerboard="0"
     inkscape:deskcolor="#d1d1d1"
     showgrid="false"
     inkscape:zoom="0.64118526"
     inkscape:cx="963.06019"
     inkscape:cy="642.56"
     inkscape:window-width="1920"
     inkscape:window-height="1027"
     inkscape:window-x="-8"
     inkscape:window-y="379"
     inkscape:window-maximized="1"
     inkscape:current-layer="g662" />
  <g
     inkscape:groupmode="layer"
     inkscape:label="Image"
     id="g662">
    <image
       width="1925.12"
       height="1285.12"
       preserveAspectRatio="none"
       xlink:href="carAlarm.jpg"
       id="image664" />
    <path
       style="fill:none;stroke:#ff0000;stroke-width:10.0006"
       d="m 1628.2346,714.30213 c -24.9538,-116.97087 -68.623,-179.35534 -81.0998,-246.41864 -12.4769,-67.0633 54.5864,-116.97087 -29.6327,-204.30912 -84.219,-87.33825 -174.6765,-112.29204 -174.6765,-112.29204"
       id="path666" />
    <path
       style="fill:none;stroke:#ff0000;stroke-width:10.0006"
       d="m 1255.4874,881.18058 c -60.8249,-88.89786 -79.5402,-112.29204 -84.2191,-227.7033 -4.6788,-115.41126 14.0365,-171.55728 17.1558,-304.12427 3.1192,-132.56699 -43.6692,-204.30913 -43.6692,-204.30913"
       id="path668" />
    <path
       style="fill:none;stroke:#ff0000;stroke-width:10.0006"
       d="M 966.95922,849.98835 C 929.52854,743.93475 937.3266,709.6233 834.39223,625.40427 731.45786,541.18524 676.87145,547.42369 644.11961,414.8567 611.36776,282.28971 603.56971,169.99767 603.56971,169.99767"
       id="path670" />
    <path
       style="fill:none;stroke:#ff0000;stroke-width:10.0006"
       d="m 151.28233,608.24854 c 49.90757,-138.80543 99.81514,-207.42835 247.97825,-226.14369 148.16311,-18.71534 296.32621,-42.10951 421.09515,-32.75184 124.76893,9.35767 182.47457,7.79806 364.94907,43.66912 182.4746,35.87107 399.2606,102.93437 399.2606,102.93437"
       id="path674" />
    <ellipse
       style="fill:none;stroke:#ff0000;stroke-width:10.0006"
       id="path676"
       cx="223.80428"
       cy="464.76428"
       rx="25.733593"
       ry="23.394175" />
    <ellipse
       style="fill:none;stroke:#ff0000;stroke-width:10.0006"
       id="path678"
       cx="810.21826"
       cy="607.46875"
       rx="27.293203"
       ry="30.412428" />
    <ellipse
       style="fill:none;stroke:#ff0000;stroke-width:10.0006"
       id="path680"
       cx="1176.7269"
       cy="722.10022"
       rx="31.972038"
       ry="26.513397" />
    <ellipse
       style="fill:none;stroke:#ff0000;stroke-width:10.0006"
       id="path682"
       cx="1603.2808"
       cy="626.96387"
       rx="28.073009"
       ry="24.953787" />
  </g>
</svg>
