<?xml version="1.0" encoding="UTF-8" standalone="no"?>
<!-- Created with Inkscape (http://www.inkscape.org/) -->

<svg
   version="1.1"
   id="svg747"
   width="1925.12"
   height="1285.12"
   viewBox="0 0 1925.12 1285.12"
   sodipodi:docname="Methlab.svg"
   inkscape:version="1.2 (dc2aedaf03, 2022-05-15)"
   xmlns:inkscape="http://www.inkscape.org/namespaces/inkscape"
   xmlns:sodipodi="http://sodipodi.sourceforge.net/DTD/sodipodi-0.dtd"
   xmlns:xlink="http://www.w3.org/1999/xlink"
   xmlns="http://www.w3.org/2000/svg"
   xmlns:svg="http://www.w3.org/2000/svg">
  <defs
     id="defs751" />
  <sodipodi:namedview
     id="namedview749"
     pagecolor="#ffffff"
     bordercolor="#000000"
     borderopacity="0.25"
     inkscape:showpageshadow="2"
     inkscape:pageopacity="0.0"
     inkscape:pagecheckerboard="0"
     inkscape:deskcolor="#d1d1d1"
     showgrid="false"
     inkscape:zoom="0.88887886"
     inkscape:cx="682.3202"
     inkscape:cy="804.38408"
     inkscape:window-width="1920"
     inkscape:window-height="1027"
     inkscape:window-x="-8"
     inkscape:window-y="379"
     inkscape:window-maximized="1"
     inkscape:current-layer="g753" />
  <g
     inkscape:groupmode="layer"
     inkscape:label="Image"
     id="g753">
    <image
       width="1925.12"
       height="1285.12"
       preserveAspectRatio="none"
       xlink:href="Methlab.jpg"
       id="image755" />
    <path
       style="fill:none;fill-opacity:0.978723;stroke:#ff0000;stroke-width:1.5"
       d="m 1806.7705,717.19562 c 3.375,-14.62517 -53.4381,-55.68813 -31.5004,-84.93846"
       id="path1039" />
    <path
       style="fill:none;stroke:#ff0000;stroke-width:10.0006"
       d="M 604.69434,927.01049 C 631.69465,880.88497 632.81966,830.8219 552.94376,793.69648 473.06785,756.57106 434.25491,736.88334 440.44248,699.19541"
       id="path1856"
       sodipodi:nodetypes="csc" />
    <path
       style="fill:none;stroke:#ff0000;stroke-width:10.0006"
       d="M 636.55442,1034.0542 C 607.86659,987.36618 578.05376,972.17848 605.05406,926.05292"
       id="path1856-2"
       sodipodi:nodetypes="cc" />
    <path
       style="fill:none;stroke:#ff0000;stroke-width:10.0006"
       d="M 971.44849,907.32277 C 921.94793,838.69699 882.57248,818.44677 905.63524,775.69628 928.698,732.9458 1058.0745,687.94529 1029.9492,618.19449"
       id="path1858"
       sodipodi:nodetypes="csc" />
    <path
       style="fill:none;stroke:#ff0000;stroke-width:10.0006"
       d="m 1206.0137,595.13174 c 39.3754,188.43963 -172.127,199.68975 -189.5647,311.62852"
       id="path1860"
       sodipodi:nodetypes="cc" />
    <path
       style="fill:none;stroke:#ff0000;stroke-width:10.0006"
       d="m 1406.8284,828.57188 c 64.1257,-34.31289 219.8666,-33.07398 212.0649,-100.68865 -8.4376,-73.12582 75.9384,-8.43758 52.3131,-156.93927 -9.084,-57.0998 -31.5003,-101.81365 -31.5003,-101.81365"
       id="path1862"
       sodipodi:nodetypes="cssc" />
    <path
       style="fill:none;stroke:#ff0000;stroke-width:10.0006"
       d="m 1590.2055,773.44625 c 28.1253,-25.31278 -34.6254,-51.18808 -98.7511,-52.8756 -64.1257,-1.68752 -82.376,-20.25023 -157.7518,-23.62526 -75.3759,-3.37504 -165.3769,29.25033 -230.0652,-5.06256 -64.6882,-34.31289 -70.3132,-71.43831 -70.3132,-71.43831"
       id="path1864"
       sodipodi:nodetypes="csssc" />
    <path
       style="fill:none;stroke:#ff0000;stroke-width:10.0006"
       d="m 1371.953,786.3839 c -14.6251,-53.43811 -39.9379,-158.6268 53.4381,-204.75232 93.3761,-46.12552 50.0631,-106.87621 28.1253,-136.68904"
       id="path1866" />
    <path
       style="fill:none;stroke:#ff0000;stroke-width:10.0006"
       d="m 1569.3928,736.32083 c -48.9381,-16.31268 -97.3136,-104.06368 -93.3761,-135.56403 3.9375,-31.50036 24.7503,-61.8757 6.7501,-102.37616"
       id="path1868" />
    <path
       style="fill:none;stroke:#ff0000;stroke-width:10.0006"
       d="m 1775.8326,632.81966 c 72.0008,-74.25084 107.4387,-141.7516 108.5637,-195.75221 1.125,-54.00062 -30.9378,-101.25115 -34.8754,-177.18951 -3.9375,-75.93836 7.8751,-143.43912 15.7502,-153.00173"
       id="path1872" />
    <ellipse
       style="fill:none;stroke:#ff0000;stroke-width:10.0006"
       id="path1874"
       cx="580.32025"
       cy="807.43671"
       rx="13.921322"
       ry="15.114578" />
    <ellipse
       style="fill:none;stroke:#ff0000;stroke-width:10.0006"
       id="path1876"
       cx="636.40332"
       cy="1032.1666"
       rx="15.114578"
       ry="13.125818" />
    <ellipse
       style="fill:none;stroke:#ff0000;stroke-width:10.0006"
       id="path1878"
       cx="901.70392"
       cy="814.59625"
       rx="19.489851"
       ry="17.501091" />
    <ellipse
       style="fill:none;stroke:#ff0000;stroke-width:10.0006"
       id="path1880"
       cx="1098.1935"
       cy="805.05017"
       rx="19.489851"
       ry="18.296595" />
    <ellipse
       style="fill:none;stroke:#ff0000;stroke-width:10.0006"
       id="path1884"
       cx="1388.5525"
       cy="608.95844"
       rx="15.512331"
       ry="13.921322" />
    <ellipse
       style="fill:none;stroke:#ff0000;stroke-width:10.0006"
       id="path1886"
       cx="1440.2603"
       cy="715.95374"
       rx="19.489851"
       ry="18.296595" />
    <ellipse
       style="fill:none;stroke:#ff0000;stroke-width:10.0006"
       id="path1888"
       cx="1489.5815"
       cy="652.71112"
       rx="21.08086"
       ry="13.921322" />
    <ellipse
       style="fill:none;stroke:#ff0000;stroke-width:10.0006"
       id="path1890"
       cx="1657.8306"
       cy="674.18976"
       rx="11.932562"
       ry="12.330314" />
    <ellipse
       style="fill:none;stroke:#ff0000;stroke-width:10.0006"
       id="path1892"
       cx="1865.855"
       cy="509.52039"
       rx="10.739305"
       ry="13.125818" />
    <ellipse
       style="fill:none;fill-opacity:0.978723;stroke:#ff0000;stroke-width:1.5"
       id="path1042"
       cx="1786.239"
       cy="682.6015"
       rx="9.2813549"
       ry="7.5938358" />
    <rect
       style="fill:none;fill-opacity:0.978723;stroke:#ff0000;stroke-width:1.5"
       id="rect306"
       width="1593.0179"
       height="1203.7635"
       x="317.2536"
       y="22.500254" />
    <path
       style="fill:none;stroke:#ff0000"
       d="m 618.75698,892.13507 c 7.90427,-53.35386 77.38415,-32.7188 153.95745,-50.24042 54.21051,-12.40453 116.46548,-65.25712 143.0459,-82.51108"
       id="path919"
       sodipodi:nodetypes="csc" />
    <ellipse
       style="fill:none;stroke:#ff0000"
       id="path921"
       cx="812.82166"
       cy="826.88434"
       rx="10.68762"
       ry="10.125114" />
  </g>
</svg>
