<?xml version="1.0" encoding="UTF-8" standalone="no"?>
<!-- Created with Inkscape (http://www.inkscape.org/) -->

<svg
   version="1.1"
   id="svg1048"
   width="772.15997"
   height="744"
   viewBox="0 0 772.15997 744"
   sodipodi:docname="overhand_boys.svg"
   inkscape:version="1.2 (dc2aedaf03, 2022-05-15)"
   xml:space="preserve"
   xmlns:inkscape="http://www.inkscape.org/namespaces/inkscape"
   xmlns:sodipodi="http://sodipodi.sourceforge.net/DTD/sodipodi-0.dtd"
   xmlns:xlink="http://www.w3.org/1999/xlink"
   xmlns="http://www.w3.org/2000/svg"
   xmlns:svg="http://www.w3.org/2000/svg"><defs
     id="defs1052" /><sodipodi:namedview
     id="namedview1050"
     pagecolor="#ffffff"
     bordercolor="#000000"
     borderopacity="0.25"
     inkscape:showpageshadow="2"
     inkscape:pageopacity="0.0"
     inkscape:pagecheckerboard="0"
     inkscape:deskcolor="#d1d1d1"
     showgrid="false"
     inkscape:zoom="0.29334678"
     inkscape:cx="714.17182"
     inkscape:cy="640.87972"
     inkscape:window-width="1920"
     inkscape:window-height="1027"
     inkscape:window-x="-8"
     inkscape:window-y="379"
     inkscape:window-maximized="1"
     inkscape:current-layer="g1054" /><g
     inkscape:groupmode="layer"
     inkscape:label="Image"
     id="g1054"><image
       width="1607.4777"
       height="2134.9314"
       preserveAspectRatio="none"
       xlink:href="overhand2.jpg"
       id="image930"
       x="-399.78"
       y="-640.44342" /><path
       style="fill:none;fill-opacity:0.978723;stroke:#ff0000;stroke-width:5"
       d="M 83.518899,385.20962 C 187.49141,338.33677 297.98221,316.40677 276.12372,163.62887 253.25698,3.8039908 245.88902,-128.75503 304.24742,-220.72852"
       id="path1175"
       sodipodi:nodetypes="csc" /><ellipse
       style="fill:none;fill-opacity:0.978723;stroke:#ff0000;stroke-width:5"
       id="path1177"
       cx="242.03436"
       cy="301.26462"
       rx="11.931272"
       ry="9.8006868" /><path
       style="fill:none;stroke:#ff0000;stroke-width:5"
       d="M 641.73196,506.2268 C 707.89347,562.5464 872.83464,325.4302 869.27835,122.72165"
       id="path414"
       sodipodi:nodetypes="cc" /><path
       style="fill:none;stroke:#ff0000;stroke-width:5"
       d="M 801.09965,629.80069 C 757.63573,582.92783 708.20618,502.81787 752.52234,449.12715"
       id="path416"
       sodipodi:nodetypes="cc" /><ellipse
       style="fill:none;stroke:#ff0000;stroke-width:5"
       id="path470"
       cx="761.89691"
       cy="440.17868"
       rx="9.3745708"
       ry="9.8006868" /><path
       style="fill:none;stroke:#ff0000;stroke-width:5"
       d="M 117.60825,698.83161 C 214.76289,666.44673 -68.178694,323.8488 -68.178694,323.8488"
       id="path935" /><path
       style="fill:none;stroke:#ff0000;stroke-width:5"
       d="M 289.75945,625.53952 C 158.51546,639.17526 134.65292,639.17526 121.01718,608.49484"
       id="path937" /><ellipse
       style="fill:none;stroke:#ff0000;stroke-width:5"
       id="path939"
       cx="88.406517"
       cy="546.10187"
       rx="11.079038"
       ry="16.19244" /><image
       width="1599.5598"
       height="1067.7913"
       preserveAspectRatio="none"
       xlink:href="BITW.jpg"
       id="image140"
       x="-393.26794"
       y="754.26001" /><path
       d="m 136.77258,1700.8298 c 0,0 38.92148,-87.3921 82.93525,-110.1484 90.61664,-46.8509 133.92178,-42.691 202.15467,-90.7104 68.23287,-48.0195 198.96111,-146.0711 45.67922,-270.5115"
       style="fill:none;stroke:#ff0000;stroke-width:8.30938"
       id="path1485"
       sodipodi:nodetypes="cssc" /><path
       style="fill:none;stroke:#ff0000;stroke-width:8.30938"
       d="m -112.06561,1304.4999 c 0,0 75.160099,207.3381 86.822872,235.847 11.662766,28.5091 73.766836,35.6674 142.544958,68.6809 32.39658,15.5503 29.80485,53.1304 18.14208,93.3022"
       id="path300"
       sodipodi:nodetypes="cssc" /><path
       style="fill:none;stroke:#ff0000;stroke-width:8.30938"
       d="m 508.65291,1529.9801 c 79.56913,-79.4208 113.05942,-170.6807 50.53872,-229.3678 -55.72212,-50.5387 -93.30221,-71.2726 -93.30221,-71.2726"
       id="path400"
       sodipodi:nodetypes="ccc" /><path
       style="fill:none;stroke:#ff0000;stroke-width:8.30938"
       d="m 780.78414,1406.8731 c 7.7753,-33.6925 36.28424,-58.3139 0,-146.4326 -34.65408,-84.1599 -29.80477,-208.6339 -29.80477,-208.6339"
       id="path404"
       sodipodi:nodetypes="csc" /><ellipse
       style="fill:none;stroke:#ff0000;stroke-width:8.30938"
       id="path458"
       cx="-57.639332"
       cy="1462.5952"
       rx="36.284172"
       ry="32.396584" /><ellipse
       style="fill:none;stroke:#ff0000;stroke-width:8.30938"
       id="path460"
       cx="349.90967"
       cy="1539.051"
       rx="33.044514"
       ry="29.804855" /><ellipse
       style="fill:none;stroke:#ff0000;stroke-width:8.30938"
       id="path462"
       cx="545.58502"
       cy="1484.6248"
       rx="20.085882"
       ry="22.029675" /><ellipse
       style="fill:none;stroke:#ff0000;stroke-width:8.30938"
       id="path464"
       cx="777.54462"
       cy="1251.3694"
       rx="22.677607"
       ry="24.621403" /><path
       style="fill:none;stroke:#ff0000;stroke-width:0.414528"
       d="m 237.15592,1581.1465 c 76.05405,-29.322 42.15044,-76.9702 28.40573,-101.7107 -13.7447,-24.7405 -68.72353,-89.7988 -55.89514,-137.4472 12.8284,-47.6483 58.64409,-122.786 61.39302,-150.2754 2.74895,-27.4894 -8.24683,-39.4015 -8.24683,-39.4015"
       id="path426" /><ellipse
       style="fill:none;stroke:#ff0000;stroke-width:0.414528"
       id="path480"
       cx="209.66653"
       cy="1369.0199"
       rx="27.48941"
       ry="21.533371" /><path
       style="fill:none;fill-opacity:0.978723;stroke:#ff0000;stroke-width:2.49266"
       d="M -60.231042,1448.3407 C -104.29041,1316.1627 -323.29133,1322.6419 -388.08451,1270.8074"
       id="path1320" /><circle
       style="fill:none;fill-opacity:0.978723;stroke:#ff0000;stroke-width:2.49266"
       id="path1322"
       cx="-273.40051"
       cy="1312.923"
       r="17.494156" /><rect
       style="fill:none;stroke:#ff0000;stroke-width:6.61828"
       id="rect1016"
       width="1591.7094"
       height="2113.8076"
       x="-389.68875"
       y="-341.47913" /></g></svg>
