<?xml version="1.0" encoding="UTF-8" standalone="no"?>
<!-- Created with Inkscape (http://www.inkscape.org/) -->

<svg
   version="1.1"
   id="svg238"
   width="1230.72"
   height="1280.96"
   viewBox="0 0 1230.72 1280.96"
   sodipodi:docname="arboretum.svg"
   inkscape:version="1.2 (dc2aedaf03, 2022-05-15)"
   xmlns:inkscape="http://www.inkscape.org/namespaces/inkscape"
   xmlns:sodipodi="http://sodipodi.sourceforge.net/DTD/sodipodi-0.dtd"
   xmlns:xlink="http://www.w3.org/1999/xlink"
   xmlns="http://www.w3.org/2000/svg"
   xmlns:svg="http://www.w3.org/2000/svg">
  <defs
     id="defs242" />
  <sodipodi:namedview
     id="namedview240"
     pagecolor="#ffffff"
     bordercolor="#000000"
     borderopacity="0.25"
     inkscape:showpageshadow="2"
     inkscape:pageopacity="0.0"
     inkscape:pagecheckerboard="0"
     inkscape:deskcolor="#d1d1d1"
     showgrid="false"
     inkscape:zoom="0.66122285"
     inkscape:cx="566.37486"
     inkscape:cy="639.72381"
     inkscape:window-width="1920"
     inkscape:window-height="1027"
     inkscape:window-x="-8"
     inkscape:window-y="379"
     inkscape:window-maximized="1"
     inkscape:current-layer="g244" />
  <g
     inkscape:groupmode="layer"
     inkscape:label="Image"
     id="g244">
    <image
       width="1230.72"
       height="1280.96"
       preserveAspectRatio="none"
       xlink:href="arboretum.jpg"
       id="image246" />
    <path
       style="fill:none;stroke:#ff0000;stroke-width:10.0006;stroke-dasharray:20.0013, 10.0006"
       d="m 755.86297,820.1042 c 0,0 -35.04684,-76.31618 -158.7966,-149.72259 C 495.56821,610.1745 471.54134,644.67166 400.46092,502.51082 329.38049,360.34997 350.55339,89.639434 350.55339,89.639434"
       id="path293"
       sodipodi:nodetypes="cssc" />
    <path
       style="fill:none;stroke:#ff0000;stroke-width:10.0006;stroke-dasharray:20.0013, 10.0006"
       d="m 1100.6787,835.22769 c 0,0 -37.8087,-37.80873 -62.0063,-308.51928 -24.1976,-270.71054 22.6852,-384.13675 22.6852,-384.13675"
       id="path349" />
    <path
       style="fill:none;stroke:#ff0000;stroke-width:10.0006;stroke-dasharray:20.0013, 10.0006"
       d="m 114.62687,683.99275 c 0,0 87.71627,4.53705 148.21025,-196.60542 60.49397,-201.14248 65.03102,-399.260246 65.03102,-399.260246"
       id="path501" />
    <path
       style="fill:none;stroke:#ff0000;stroke-width:10.0006;stroke-dasharray:20.0013, 10.0006"
       d="M 411.04736,1059.0554 C 335.42989,915.38221 327.86814,888.15992 288.54706,863.96233 249.22597,839.76474 169.07145,824.64125 170.5838,791.36956 172.09615,758.09787 220.49133,705.16564 268.88651,615.93703 317.2817,526.70841 341.47929,89.639434 341.47929,89.639434"
       id="path505" />
    <ellipse
       style="fill:none;stroke:#ff0000;stroke-width:10.0006;stroke-dasharray:20.0013, 10.0006"
       id="path508"
       cx="448.41159"
       cy="582.25452"
       rx="35.540211"
       ry="39.321087" />
    <ellipse
       style="fill:none;stroke:#ff0000;stroke-width:10.0006;stroke-dasharray:20.0013, 10.0006"
       id="path508-1"
       cx="1040.4622"
       cy="554.93689"
       rx="35.540211"
       ry="39.321087" />
    <ellipse
       style="fill:none;stroke:#ff0000;stroke-width:10.0006;stroke-dasharray:20.0013, 10.0006"
       id="path510"
       cx="350.86508"
       cy="943.70605"
       rx="30.246988"
       ry="33.271687" />
    <ellipse
       style="fill:none;stroke:#ff0000;stroke-width:10.0006;stroke-dasharray:20.0013, 10.0006"
       id="path512"
       cx="221.55919"
       cy="588.30396"
       rx="29.490814"
       ry="28.734638" />
  </g>
</svg>
