<?xml version="1.0" encoding="UTF-8" standalone="no"?>
<!-- Created with Inkscape (http://www.inkscape.org/) -->

<svg
   version="1.1"
   id="svg132"
   width="1925.12"
   height="1285.12"
   viewBox="0 0 1925.12 1285.12"
   sodipodi:docname="BITW.svg"
   inkscape:version="1.2 (dc2aedaf03, 2022-05-15)"
   xmlns:inkscape="http://www.inkscape.org/namespaces/inkscape"
   xmlns:sodipodi="http://sodipodi.sourceforge.net/DTD/sodipodi-0.dtd"
   xmlns:xlink="http://www.w3.org/1999/xlink"
   xmlns="http://www.w3.org/2000/svg"
   xmlns:svg="http://www.w3.org/2000/svg">
  <defs
     id="defs136" />
  <sodipodi:namedview
     id="namedview134"
     pagecolor="#ffffff"
     bordercolor="#000000"
     borderopacity="0.25"
     inkscape:showpageshadow="2"
     inkscape:pageopacity="0.0"
     inkscape:pagecheckerboard="0"
     inkscape:deskcolor="#d1d1d1"
     showgrid="false"
     inkscape:zoom="2.564741"
     inkscape:cx="874.35728"
     inkscape:cy="580.95534"
     inkscape:window-width="1920"
     inkscape:window-height="1027"
     inkscape:window-x="-8"
     inkscape:window-y="379"
     inkscape:window-maximized="1"
     inkscape:current-layer="g138" />
  <g
     inkscape:groupmode="layer"
     inkscape:label="Image"
     id="g138">
    <image
       width="1925.12"
       height="1285.12"
       preserveAspectRatio="none"
       xlink:href="BITW.jpg"
       id="image140" />
    <path
       d="m 637.92018,1057.1708 c 0,0 46.8432,-105.17918 99.81515,-132.56693 109.05992,-56.38656 161.17901,-51.37995 243.29941,-109.17282 82.12036,-57.79287 239.45586,-175.80109 54.97636,-325.56893"
       style="fill:none;stroke:#ff0000;stroke-width:10.0006"
       id="path1485"
       sodipodi:nodetypes="cssc" />
    <path
       style="fill:none;stroke:#ff0000;stroke-width:10.0006"
       d="m 338.43573,580.17553 c 0,0 90.45747,249.53786 104.49398,283.84932 14.0365,34.31146 88.78067,42.92666 171.55728,82.65942 38.99029,18.71534 35.87107,63.94413 21.83456,112.29203"
       id="path300"
       sodipodi:nodetypes="cssc" />
    <path
       style="fill:none;stroke:#ff0000;stroke-width:10.0006"
       d="m 1085.4897,851.54796 c 95.7639,-95.58548 136.0705,-205.41942 60.8249,-276.05126 -67.0633,-60.82486 -112.2921,-85.77864 -112.2921,-85.77864"
       id="path400"
       sodipodi:nodetypes="ccc" />
    <path
       style="fill:none;stroke:#ff0000;stroke-width:10.0006"
       d="m 1413.0081,703.38485 c 9.3578,-40.5499 43.6692,-70.18252 0,-176.23611 -41.7073,-101.28903 -35.871,-251.09748 -35.871,-251.09748"
       id="path404"
       sodipodi:nodetypes="csc" />
    <ellipse
       style="fill:none;stroke:#ff0000;stroke-width:10.0006"
       id="path458"
       cx="403.93942"
       cy="770.44818"
       rx="43.669125"
       ry="38.990292" />
    <ellipse
       style="fill:none;stroke:#ff0000;stroke-width:10.0006"
       id="path460"
       cx="894.43726"
       cy="862.46521"
       rx="39.770096"
       ry="35.871067" />
    <ellipse
       style="fill:none;stroke:#ff0000;stroke-width:10.0006"
       id="path462"
       cx="1129.9386"
       cy="796.96155"
       rx="24.173981"
       ry="26.513397" />
    <ellipse
       style="fill:none;stroke:#ff0000;stroke-width:10.0006"
       id="path464"
       cx="1409.1091"
       cy="516.23145"
       rx="27.293203"
       ry="29.632622" />
  </g>
</svg>
