<?xml version="1.0" encoding="UTF-8" standalone="no"?>
<!-- Created with Inkscape (http://www.inkscape.org/) -->

<svg
   version="1.1"
   id="svg776"
   width="1557.12"
   height="846.08002"
   viewBox="0 0 1557.12 846.08002"
   sodipodi:docname="childOfGod.svg"
   inkscape:version="1.2 (dc2aedaf03, 2022-05-15)"
   xml:space="preserve"
   xmlns:inkscape="http://www.inkscape.org/namespaces/inkscape"
   xmlns:sodipodi="http://sodipodi.sourceforge.net/DTD/sodipodi-0.dtd"
   xmlns:xlink="http://www.w3.org/1999/xlink"
   xmlns="http://www.w3.org/2000/svg"
   xmlns:svg="http://www.w3.org/2000/svg"><defs
     id="defs780" /><sodipodi:namedview
     id="namedview778"
     pagecolor="#ffffff"
     bordercolor="#000000"
     borderopacity="0.25"
     inkscape:showpageshadow="2"
     inkscape:pageopacity="0.0"
     inkscape:pagecheckerboard="0"
     inkscape:deskcolor="#d1d1d1"
     showgrid="false"
     inkscape:zoom="0.55764946"
     inkscape:cx="727.15932"
     inkscape:cy="123.73364"
     inkscape:window-width="1920"
     inkscape:window-height="1027"
     inkscape:window-x="-8"
     inkscape:window-y="379"
     inkscape:window-maximized="1"
     inkscape:current-layer="g782" /><g
     inkscape:groupmode="layer"
     inkscape:label="Image"
     id="g782"><image
       width="1645.7144"
       height="1097.1429"
       preserveAspectRatio="none"
       xlink:href="childOfGod2.JPG"
       id="image965"
       x="0.083281599"
       y="-250.58844"
       style="display:inline" /><path
       style="fill:none;fill-opacity:0.978723;stroke:#ff0000;stroke-width:4.78284;stroke-dasharray:none"
       d="M 683.39302,423.52859 C 763.34984,234.57644 652.93328,211.39213 722.73684,140.67998 788.26537,74.298511 831.88424,81.559982 831.88424,81.559982"
       id="path903"
       sodipodi:nodetypes="csc" /><ellipse
       style="fill:none;fill-opacity:0.978723;stroke:#ff0000;stroke-width:5;stroke-dasharray:none"
       id="path1460"
       cx="714.52533"
       cy="294.17902"
       rx="10.778111"
       ry="8.876091" /><path
       style="fill:none;fill-opacity:0.978723;stroke:#ff0000;stroke-width:5;stroke-dasharray:none"
       d="M 637.46555,684.86541 C 643.18607,664.5258 649.54698,643.5121 633.99522,622.94305 587.49712,561.44384 442.45216,552.13517 420.98032,518.61733 371.83757,441.90482 384.56613,368.37871 438.13037,302.83756"
       id="path1462"
       sodipodi:nodetypes="cssc" /><ellipse
       style="fill:none;fill-opacity:0.978723;stroke:#ff0000;stroke-width:5;stroke-dasharray:none"
       id="path1464"
       cx="571.18256"
       cy="579.53577"
       rx="9.190361"
       ry="8.7420511" /><path
       style="fill:none;fill-opacity:0.978723;stroke:#ff0000;stroke-width:5;stroke-dasharray:none"
       d="M 842.82338,532.14433 C 869.722,516.45347 903.34526,457.27651 854.47944,403.03096 805.61362,348.78542 749.12651,230.4315 802.02713,172.15116 854.92775,113.87082 844.61661,93.696853 844.61661,93.696853"
       id="path1466"
       sodipodi:nodetypes="cssc" /><path
       style="fill:none;fill-opacity:0.978723;stroke:#ff0000;stroke-width:5;stroke-dasharray:none"
       d="M 944.14146,510.62544 C 891.24089,483.27851 870.61861,424.54986 870.61861,424.54986"
       id="path1468"
       sodipodi:nodetypes="cc" /><ellipse
       style="fill:none;fill-opacity:0.978723;stroke:#ff0000;stroke-width:5;stroke-dasharray:none"
       id="path1470"
       cx="840.13348"
       cy="386.21933"
       rx="6.7246547"
       ry="6.5004992" /><path
       style="fill:none;fill-opacity:0.978723;stroke:#ff0000;stroke-width:4.65588;stroke-dasharray:none"
       d="m 999.72359,528.15822 c 17.14121,-25.88445 -0.45107,-184.28181 -14.8858,-224.46065 -14.43463,-40.17884 35.63561,-98.90177 35.63561,-98.90177"
       id="path1472" /><ellipse
       style="fill:none;fill-opacity:0.978723;stroke:#ff0000;stroke-width:5;stroke-dasharray:none"
       id="path1474"
       cx="1002.4218"
       cy="394.9614"
       rx="8.5178957"
       ry="7.172965" /><path
       style="fill:none;fill-opacity:0.978723;stroke:#ff0000;stroke-width:5.58921;stroke-dasharray:none"
       d="m 1012.851,653.74448 c 12.8037,-160.40896 15.4528,-169.51017 15.4528,-169.51017"
       id="path1476" /><path
       style="fill:none;fill-opacity:0.978723;stroke:#ff0000;stroke-width:5;stroke-dasharray:none"
       d="m 1041.8732,418.27351 c 11.656,-105.80123 86.5239,-212.05077 86.5239,-212.05077"
       id="path1478"
       sodipodi:nodetypes="cc" /><ellipse
       style="fill:none;fill-opacity:0.978723;stroke:#ff0000;stroke-width:5;stroke-dasharray:none"
       id="path1480"
       cx="1064.5128"
       cy="326.81821"
       rx="10.086982"
       ry="11.207758" /><path
       style="fill:none;fill-opacity:0.978723;stroke:#ff0000;stroke-width:5;stroke-dasharray:none"
       d="m 1142.9289,590.8786 c 36.1384,-206.68612 64.5121,-277.87265 56.2542,-334.49602 -4.9432,-33.89424 -39.3085,-57.6946 -39.3085,-57.6946"
       id="path1482"
       sodipodi:nodetypes="csc" /><ellipse
       style="fill:none;fill-opacity:0.978723;stroke:#ff0000;stroke-width:5;stroke-dasharray:none"
       id="path1484"
       cx="1192.2634"
       cy="342.43817"
       rx="8.5590878"
       ry="5.7060585" /><path
       style="fill:none;fill-opacity:0.978723;stroke:#ff0000;stroke-width:5;stroke-dasharray:none"
       d="m 1145.465,591.51261 c 55.7925,-46.28247 140.19,-18.27741 166.1843,-30.32353 25.9943,-12.04613 44.5607,-31.22016 44.5607,-31.22016"
       id="path1486"
       sodipodi:nodetypes="csc" /><ellipse
       style="fill:none;fill-opacity:0.978723;stroke:#ff0000;stroke-width:5;stroke-dasharray:none"
       id="path1488"
       cx="1245.6381"
       cy="564.56738"
       rx="6.9740715"
       ry="9.8271008" /><path
       style="fill:none;fill-opacity:0.978723;stroke:#ff0000;stroke-width:5;stroke-dasharray:none"
       d="m 1371.2801,671.82934 c -2.536,-12.04612 -12.6801,-166.74371 -26.6283,-202.88208 -13.9481,-36.13837 -71.6427,-177.52182 -71.6427,-177.52182"
       id="path1490" /><ellipse
       style="fill:none;fill-opacity:0.978723;stroke:#ff0000;stroke-width:5;stroke-dasharray:none"
       id="path1492"
       cx="1344.6519"
       cy="470.84927"
       rx="6.9740715"
       ry="8.876091" /><path
       style="fill:none;fill-opacity:0.978723;stroke:#ff0000;stroke-width:3"
       d="M 130.60534,538.27153 C 178.78984,411.47022 207.95414,362.01772 233.3144,354.40964"
       id="path1913" /><ellipse
       style="fill:none;fill-opacity:0.978723;stroke:#ff0000;stroke-width:3"
       id="path1917"
       cx="169.91374"
       cy="438.73251"
       rx="12.68013"
       ry="15.850163" /><path
       style="fill:none;fill-opacity:0.978723;stroke:#ff0000;stroke-width:3"
       d="m 232.04638,354.40964 c 60.86463,-8.87609 158.50163,9.5101 213.02619,-62.76664 78.30763,-114.82572 185.04807,-55.03892 282.06145,-154.61841"
       id="path1915"
       sodipodi:nodetypes="ccc" /><ellipse
       style="fill:none;fill-opacity:0.978723;stroke:#ff0000;stroke-width:3"
       id="path1920"
       cx="277.06085"
       cy="351.87363"
       rx="13.314137"
       ry="16.484169" /><rect
       style="fill:none;stroke:#ff0000;stroke-width:1.88976"
       id="rect1172"
       width="1343.6731"
       height="896.75891"
       x="67.607735"
       y="-105.93955" /></g></svg>
