<?xml version="1.0" encoding="UTF-8" standalone="no"?>
<!-- Created with Inkscape (http://www.inkscape.org/) -->

<svg
   version="1.1"
   id="svg776"
   width="1557.12"
   height="846.08002"
   viewBox="0 0 1557.12 846.08002"
   sodipodi:docname="childOfGod.svg"
   inkscape:version="1.2 (dc2aedaf03, 2022-05-15)"
   xmlns:inkscape="http://www.inkscape.org/namespaces/inkscape"
   xmlns:sodipodi="http://sodipodi.sourceforge.net/DTD/sodipodi-0.dtd"
   xmlns:xlink="http://www.w3.org/1999/xlink"
   xmlns="http://www.w3.org/2000/svg"
   xmlns:svg="http://www.w3.org/2000/svg">
  <defs
     id="defs780" />
  <sodipodi:namedview
     id="namedview778"
     pagecolor="#ffffff"
     bordercolor="#000000"
     borderopacity="0.25"
     inkscape:showpageshadow="2"
     inkscape:pageopacity="0.0"
     inkscape:pagecheckerboard="0"
     inkscape:deskcolor="#d1d1d1"
     showgrid="false"
     inkscape:zoom="0.78863543"
     inkscape:cx="984.61211"
     inkscape:cy="409.56821"
     inkscape:window-width="1536"
     inkscape:window-height="811"
     inkscape:window-x="1912"
     inkscape:window-y="-8"
     inkscape:window-maximized="1"
     inkscape:current-layer="g782" />
  <g
     inkscape:groupmode="layer"
     inkscape:label="Image"
     id="g782">
    <image
       width="1557.12"
       height="846.08002"
       preserveAspectRatio="none"
       xlink:href="childOfGod.jpg"
       id="image784" />
    <path
       style="fill:none;fill-opacity:0.978723;stroke:#ff0000;stroke-width:5;stroke-dasharray:none"
       d="M 683.45902,423.51635 C 763.34385,216.83022 653.02671,191.46996 722.76742,114.12117 788.23694,41.509516 831.81654,49.452508 831.81654,49.452508"
       id="path903"
       sodipodi:nodetypes="csc" />
    <ellipse
       style="fill:none;fill-opacity:0.978723;stroke:#ff0000;stroke-width:5;stroke-dasharray:none"
       id="path1460"
       cx="714.52533"
       cy="294.17902"
       rx="10.778111"
       ry="8.876091" />
    <path
       style="fill:none;fill-opacity:0.978723;stroke:#ff0000;stroke-width:5;stroke-dasharray:none"
       d="m 621.32638,734.17954 c 22.82424,-81.15283 20.87205,-96.74177 -8.87609,-140.74944 -38.99864,-57.69232 54.88275,-117.27028 70.40659,-170.1313"
       id="path1462"
       sodipodi:nodetypes="csc" />
    <ellipse
       style="fill:none;fill-opacity:0.978723;stroke:#ff0000;stroke-width:5;stroke-dasharray:none"
       id="path1464"
       cx="634.58325"
       cy="677.17273"
       rx="9.190361"
       ry="8.7420511" />
    <path
       style="fill:none;fill-opacity:0.978723;stroke:#ff0000;stroke-width:5;stroke-dasharray:none"
       d="M 877.79158,570.69902 C 904.6902,555.00816 903.34526,457.27651 854.47944,403.03096 805.61362,348.78542 749.12651,230.4315 802.02713,172.15116 854.92775,113.87082 884.96454,71.281338 884.96454,71.281338"
       id="path1466"
       sodipodi:nodetypes="cssc" />
    <path
       style="fill:none;fill-opacity:0.978723;stroke:#ff0000;stroke-width:5;stroke-dasharray:none"
       d="M 1002.4218,557.24971 C 949.52123,529.90278 870.61861,424.54986 870.61861,424.54986"
       id="path1468" />
    <ellipse
       style="fill:none;fill-opacity:0.978723;stroke:#ff0000;stroke-width:5;stroke-dasharray:none"
       id="path1470"
       cx="840.13348"
       cy="386.21933"
       rx="6.7246547"
       ry="6.5004992" />
    <path
       style="fill:none;fill-opacity:0.978723;stroke:#ff0000;stroke-width:5;stroke-dasharray:none"
       d="m 1065.1853,564.87098 c 17.0358,-30.03679 -0.4483,-213.84401 -14.7943,-260.46828 -14.3459,-46.62427 35.4166,-114.76744 35.4166,-114.76744"
       id="path1472" />
    <ellipse
       style="fill:none;fill-opacity:0.978723;stroke:#ff0000;stroke-width:5;stroke-dasharray:none"
       id="path1474"
       cx="1068.7717"
       cy="434.41269"
       rx="8.5178957"
       ry="7.172965" />
    <path
       style="fill:none;fill-opacity:0.978723;stroke:#ff0000;stroke-width:5;stroke-dasharray:none"
       d="m 1061.1505,702.05394 c 13.001,-126.42351 15.6909,-133.59647 15.6909,-133.59647"
       id="path1476" />
    <path
       style="fill:none;fill-opacity:0.978723;stroke:#ff0000;stroke-width:5;stroke-dasharray:none"
       d="m 1108.2231,426.3431 c 11.656,-105.80123 91.9036,-236.25953 91.9036,-236.25953"
       id="path1478" />
    <ellipse
       style="fill:none;fill-opacity:0.978723;stroke:#ff0000;stroke-width:5;stroke-dasharray:none"
       id="path1480"
       cx="1130.8628"
       cy="334.88779"
       rx="10.086982"
       ry="11.207758" />
    <path
       style="fill:none;fill-opacity:0.978723;stroke:#ff0000;stroke-width:5;stroke-dasharray:none"
       d="m 1249.6268,642.8826 c 36.1384,-206.68612 56.4425,-341.53271 48.1846,-398.15608 -4.9432,-33.89424 -39.3085,-57.6946 -39.3085,-57.6946"
       id="path1482"
       sodipodi:nodetypes="csc" />
    <ellipse
       style="fill:none;fill-opacity:0.978723;stroke:#ff0000;stroke-width:5;stroke-dasharray:none"
       id="path1484"
       cx="1291.7883"
       cy="385.47595"
       rx="8.5590878"
       ry="5.7060585" />
    <path
       style="fill:none;fill-opacity:0.978723;stroke:#ff0000;stroke-width:5;stroke-dasharray:none"
       d="m 1252.1629,643.51661 c 55.7925,-46.28247 183.2278,-16.48417 209.2221,-28.53029 25.9943,-12.04613 26.6283,-28.5303 26.6283,-28.5303"
       id="path1486" />
    <ellipse
       style="fill:none;fill-opacity:0.978723;stroke:#ff0000;stroke-width:5;stroke-dasharray:none"
       id="path1488"
       cx="1352.3359"
       cy="616.57135"
       rx="6.9740715"
       ry="9.8271008" />
    <path
       style="fill:none;fill-opacity:0.978723;stroke:#ff0000;stroke-width:5;stroke-dasharray:none"
       d="m 1479.7712,668.24286 c -2.536,-12.04612 -12.6801,-166.74371 -26.6283,-202.88208 -13.9481,-36.13837 -71.6427,-177.52182 -71.6427,-177.52182"
       id="path1490" />
    <ellipse
       style="fill:none;fill-opacity:0.978723;stroke:#ff0000;stroke-width:5;stroke-dasharray:none"
       id="path1492"
       cx="1453.1429"
       cy="467.26279"
       rx="6.9740715"
       ry="8.876091" />
  </g>
</svg>
