<?xml version="1.0" encoding="UTF-8" standalone="no"?>
<!-- Created with Inkscape (http://www.inkscape.org/) -->

<svg
   version="1.1"
   id="svg1096"
   width="1645.7144"
   height="1097.1429"
   viewBox="0 0 1645.7144 1097.1429"
   sodipodi:docname="duckTwirl.svg"
   inkscape:version="1.2 (dc2aedaf03, 2022-05-15)"
   xmlns:inkscape="http://www.inkscape.org/namespaces/inkscape"
   xmlns:sodipodi="http://sodipodi.sourceforge.net/DTD/sodipodi-0.dtd"
   xmlns:xlink="http://www.w3.org/1999/xlink"
   xmlns="http://www.w3.org/2000/svg"
   xmlns:svg="http://www.w3.org/2000/svg">
  <defs
     id="defs1100" />
  <sodipodi:namedview
     id="namedview1098"
     pagecolor="#ffffff"
     bordercolor="#cccccc"
     borderopacity="1"
     inkscape:showpageshadow="0"
     inkscape:pageopacity="1"
     inkscape:pagecheckerboard="0"
     inkscape:deskcolor="#d1d1d1"
     showgrid="false"
     inkscape:zoom="0.51989533"
     inkscape:cx="1124.2648"
     inkscape:cy="444.32021"
     inkscape:window-width="1920"
     inkscape:window-height="1027"
     inkscape:window-x="-8"
     inkscape:window-y="379"
     inkscape:window-maximized="1"
     inkscape:current-layer="g1102" />
  <g
     inkscape:groupmode="layer"
     inkscape:label="Image"
     id="g1102">
    <image
       width="1645.7144"
       height="1097.1429"
       preserveAspectRatio="none"
       xlink:href="duckTwirl.JPG"
       id="image1104" />
    <path
       style="fill:none;stroke:#ff0000;stroke-width:5"
       d="M 334.58325,667.8064 C 299.22079,481.47346 387.62693,232.57616 446.111,161.85125"
       id="path1223" />
    <ellipse
       style="fill:none;stroke:#ff0000;stroke-width:5"
       id="path1225"
       cx="354.30463"
       cy="363.82529"
       rx="18.361277"
       ry="17.001181" />
    <path
       style="fill:none;stroke:#ff0000;stroke-width:5"
       d="M 749.46162,783.76569 C 799.69316,776.48575 806.93864,552.56963 886.73401,396.98496 962.23252,249.77829 977.2362,115.04467 977.2362,115.04467"
       id="path1227"
       sodipodi:nodetypes="csc" />
    <path
       style="fill:none;stroke:#ff0000;stroke-width:5"
       d="M 945.07237,705.75034 C 880.50634,757.00057 850.11609,524.18027 860.55319,458.20829"
       id="path1229"
       sodipodi:nodetypes="cc" />
    <ellipse
       style="fill:none;stroke:#ff0000;stroke-width:5"
       id="path1231"
       cx="891.58197"
       cy="387.26175"
       rx="12.920897"
       ry="12.24085" />
    <path
       style="fill:none;stroke:#ff0000;stroke-width:5"
       d="m 1018.7108,454.27157 c 50.3235,-58.48407 100.647,-108.80756 108.8075,-330.50297"
       id="path1233" />
    <path
       style="fill:none;stroke:#ff0000;stroke-width:5"
       d="m 1116.6376,443.39081 c -40.8028,-10.88076 -65.2845,-27.20189 -40.8028,-65.28454"
       id="path1235" />
    <ellipse
       style="fill:none;stroke:#ff0000;stroke-width:5"
       id="path1237"
       cx="1107.797"
       cy="297.18066"
       rx="8.8406143"
       ry="12.920897" />
    <path
       style="fill:none;stroke:#ff0000;stroke-width:3.77953"
       d="M 423.66944,763.01302 C 530.09684,747.37194 601.16178,680.04726 579.40026,620.2031 557.63875,560.35894 522.27629,428.42977 541.31762,356.34476 560.35894,284.25975 671.88669,85.685955 671.88669,85.685955"
       id="path702" />
    <path
       style="fill:none;stroke:#ff0000;stroke-width:3.77953"
       d="M 712.3495,761.31291 C 653.18539,768.4534 595.53466,687.59784 582.27545,629.86218"
       id="path704"
       sodipodi:nodetypes="cc" />
    <ellipse
       style="fill:none;stroke:#ff0000;stroke-width:3.77953"
       id="path758"
       cx="551.07245"
       cy="528.95264"
       rx="16.349445"
       ry="23.08157" />
  </g>
</svg>
