<?xml version="1.0" encoding="UTF-8" standalone="no"?>
<!-- Created with Inkscape (http://www.inkscape.org/) -->

<svg
   version="1.1"
   id="svg955"
   width="1645.7144"
   height="1097.1429"
   viewBox="0 0 1645.7144 1097.1429"
   sodipodi:docname="young.svg"
   inkscape:version="1.2 (dc2aedaf03, 2022-05-15)"
   xmlns:inkscape="http://www.inkscape.org/namespaces/inkscape"
   xmlns:sodipodi="http://sodipodi.sourceforge.net/DTD/sodipodi-0.dtd"
   xmlns:xlink="http://www.w3.org/1999/xlink"
   xmlns="http://www.w3.org/2000/svg"
   xmlns:svg="http://www.w3.org/2000/svg">
  <defs
     id="defs959" />
  <sodipodi:namedview
     id="namedview957"
     pagecolor="#ffffff"
     bordercolor="#cccccc"
     borderopacity="1"
     inkscape:showpageshadow="0"
     inkscape:pageopacity="1"
     inkscape:pagecheckerboard="0"
     inkscape:deskcolor="#d1d1d1"
     showgrid="false"
     inkscape:zoom="0.73524302"
     inkscape:cx="658.96579"
     inkscape:cy="549.47818"
     inkscape:window-width="1920"
     inkscape:window-height="1027"
     inkscape:window-x="-8"
     inkscape:window-y="379"
     inkscape:window-maximized="1"
     inkscape:current-layer="g961" />
  <g
     inkscape:groupmode="layer"
     inkscape:label="Image"
     id="g961">
    <image
       width="1645.7144"
       height="1097.1429"
       preserveAspectRatio="none"
       xlink:href="young.JPG"
       id="image963" />
    <path
       style="fill:none;stroke:#ff0000;stroke-width:5"
       d="M 946.62578,617.48291 C 807.89614,572.59979 733.89202,444.1758 594.3613,406.66826 514.57572,385.22094 383.54665,450.19128 371.3058,378.10627 359.06495,306.02126 490.99412,170.01181 490.99412,170.01181"
       id="path1082"
       sodipodi:nodetypes="cssc" />
    <path
       style="fill:none;stroke:#ff0000;stroke-width:5"
       d="M 937.10512,741.25151 C 862.29992,724.93037 897.66238,606.60215 856.85954,575.31998"
       id="path1084" />
    <circle
       style="fill:none;stroke:#ff0000;stroke-width:5"
       id="path1086"
       cx="551.51831"
       cy="403.26804"
       r="15.641087" />
    <path
       style="fill:none;stroke:#ff0000"
       d="m 855.49945,575.31998 c -76.16529,-44.88312 2.72019,-63.92444 1.3601,-142.80992 -1.3601,-78.88548 -97.92681,-100.647 -51.6836,-202.65409 46.24322,-102.00709 74.8052,-136.009448 74.8052,-136.009448"
       id="path418"
       sodipodi:nodetypes="cssc" />
    <ellipse
       style="fill:none;stroke:#ff0000"
       id="path568"
       cx="792.93512"
       cy="273.379"
       rx="16.321135"
       ry="14.96104" />
    <path
       style="fill:none;stroke:#ff0000"
       d="m 1327.4522,484.19365 c -95.2066,-4.08029 -126.4887,-31.28218 -138.7296,-85.68596 -12.2408,-54.40378 -42.1629,-334.583248 -42.1629,-334.583248"
       id="path570" />
    <ellipse
       style="fill:none;stroke:#ff0000"
       id="path572"
       cx="1178.5219"
       cy="337.30344"
       rx="8.8406143"
       ry="13.600945" />
  </g>
</svg>
