<?xml version="1.0" encoding="UTF-8" standalone="no"?>
<!-- Created with Inkscape (http://www.inkscape.org/) -->

<svg
   width="1920"
   height="1388.0518"
   viewBox="0 0 1920 1388.0518"
   version="1.1"
   id="svg5"
   inkscape:version="1.2 (dc2aedaf03, 2022-05-15)"
   sodipodi:docname="fightClub.svg"
   xmlns:inkscape="http://www.inkscape.org/namespaces/inkscape"
   xmlns:sodipodi="http://sodipodi.sourceforge.net/DTD/sodipodi-0.dtd"
   xmlns="http://www.w3.org/2000/svg"
   xmlns:svg="http://www.w3.org/2000/svg">
  <sodipodi:namedview
     id="namedview7"
     pagecolor="#ffffff"
     bordercolor="#000000"
     borderopacity="0.25"
     inkscape:showpageshadow="2"
     inkscape:pageopacity="0.0"
     inkscape:pagecheckerboard="0"
     inkscape:deskcolor="#d1d1d1"
     inkscape:document-units="mm"
     showgrid="false"
     inkscape:zoom="0.75455247"
     inkscape:cx="1429.9867"
     inkscape:cy="792.52275"
     inkscape:window-width="1920"
     inkscape:window-height="1027"
     inkscape:window-x="-8"
     inkscape:window-y="379"
     inkscape:window-maximized="1"
     inkscape:current-layer="layer1" />
  <defs
     id="defs2">
    <marker
       style="overflow:visible"
       id="marker2013"
       refX="0"
       refY="0"
       orient="auto-start-reverse"
       inkscape:stockid="TriangleStart"
       markerWidth="3.3239999"
       markerHeight="3.8427744"
       viewBox="0 0 5.3244081 6.1553851"
       inkscape:isstock="true"
       inkscape:collect="always"
       preserveAspectRatio="xMidYMid">
      <path
         style="fill:context-stroke;fill-rule:evenodd;stroke:context-stroke;stroke-width:0.5pt"
         d="m -1.1072586,0 4.325,2.5 v -5 z"
         id="path2011" />
    </marker>
    <marker
       style="overflow:visible"
       id="TriangleStart"
       refX="0"
       refY="0"
       orient="auto-start-reverse"
       inkscape:stockid="TriangleStart"
       markerWidth="3.3239999"
       markerHeight="3.8427744"
       viewBox="0 0 5.3244081 6.1553851"
       inkscape:isstock="true"
       inkscape:collect="always"
       preserveAspectRatio="xMidYMid">
      <path
         transform="scale(0.5)"
         style="fill:context-stroke;fill-rule:evenodd;stroke:context-stroke;stroke-width:1pt"
         d="M 5.77,0 -2.88,5 V -5 Z"
         id="path135" />
    </marker>
  </defs>
  <g
     inkscape:label="Layer 1"
     inkscape:groupmode="layer"
     id="layer1"
     transform="translate(108.48052,82.991333)">
    <rect
       style="fill:#ffffff;stroke:none;stroke-width:15.2133;stroke-dasharray:30.4269, 15.2133;stroke-dashoffset:0;stroke-opacity:1"
       id="rect5312"
       width="1920.7579"
       height="1385.0773"
       x="-108.48052"
       y="-82.991333" />
    <path
       style="fill:#000000;stroke-width:22.6805"
       d="m 1415.5918,698.74261 c -13.2735,3.97392 -16.6422,16.90404 -22.2688,33.46076 -2.757,8.11241 -2.3691,15.88985 -2.3691,25.09564 0,39.68022 25.5002,59.59419 44.5378,77.56821 6.5716,6.20453 13.1309,14.09956 20.3736,18.25126 13.0774,7.49643 59.0576,11.75834 72.4922,6.08388 20.3027,-8.57536 64.8779,-40.7522 75.3351,-70.72397 4.9538,-14.19833 6.9576,-32.06246 8.0547,-47.90973 0.9974,-14.40829 4.2669,-37.50523 0.9476,-51.71213 -4.3762,-18.73072 -25.0817,-29.28898 -35.5354,-35.74228 -3.4409,-2.12414 -6.4376,-5.31711 -9.4762,-8.36514 -2.1058,-2.11256 -4.8411,-1.06893 -7.107,-2.28145 -19.5035,-10.43452 -43.1512,-17.86412 -63.9637,-13.68851 -15.2383,3.05727 -24.6461,19.77884 -36.9569,29.6584 -8.8866,7.13173 -21.3237,11.15622 -29.376,19.77228 -4.0995,4.38666 -13.6276,19.11461 -14.6879,20.53278 z"
       id="path252" />
    <path
       style="fill:#050505;stroke-width:15.6653"
       d="m 1275.2644,748.08323 c -4.4928,4.99899 -8.7698,10.36577 -11.0764,16.76022 -5.5429,15.36665 -11.3548,47.64265 6.5638,57.40348 24.8761,13.55074 76.1008,11.40721 100.098,-4.18998 8.7921,-5.71462 11.8444,-14.91472 12.7173,-24.72126 0.5443,-6.1182 2.123,-15.11894 0.4103,-20.95021 -6.9328,-23.60288 -45.6207,-36.45334 -67.6892,-36.45334 -2.5945,0 -8.3384,-1.18872 -10.6662,0 -12.0184,6.13762 -15.1486,10.95622 -30.3576,12.15109 z"
       id="path254" />
    <path
       style="fill:#050505;stroke-width:15.6653"
       d="m 1121.8357,716.65792 c -14.6754,15.6736 -18.9156,32.62025 -20.1016,53.21353 -1.4396,24.99601 -0.2121,41.42661 11.8969,63.6886 4.4932,8.26071 18.7696,13.51351 26.6654,17.17915 6.0358,2.80217 10.9608,7.90205 16.8197,10.89415 19.0385,9.72263 67.509,-5.58156 80.4066,-20.95021 20.2047,-24.076 3.1001,-57.94437 -3.6922,-83.38179 -1.4033,-5.25541 -0.8051,-10.83135 -2.0512,-15.92217 -0.7248,-2.96095 -2.5211,-6.1101 -3.2819,-9.21809 -1.2162,-4.96875 -1.6376,-22.62454 -6.5638,-25.14027 -4.7337,-2.41737 -45.57,-4.85356 -52.9206,-3.352 -4.5424,0.92788 -6.736,5.12718 -11.0764,5.86604 -12.0993,2.05961 -24.0768,6.09968 -36.1009,7.12306 z"
       id="path256" />
    <path
       style="fill:#050505;stroke-width:19.2934"
       d="m 931.86314,650.03632 c -4.10191,3.48898 -8.88857,6.128 -12.30563,10.46688 -5.47072,6.94652 -7.75332,27.12392 -4.25962,35.25686 5.7985,13.49828 19.43607,21.10034 27.451,32.50247 5.09197,7.24385 10.13994,14.53885 16.09198,20.93376 6.60465,7.09609 17.51417,12.95866 26.03115,15.97577 18.70838,6.62734 66.50948,14.15511 87.08598,9.36506 11.6672,-2.71596 24.9444,-65.51405 23.1914,-78.77706 -0.66,-4.9936 -1.4927,-6.15667 -4.733,-10.46689 -12.8856,-17.1408 -77.946,-32.50243 -98.44499,-32.50243 -20.10175,0 -39.91603,-1.73256 -60.10827,-2.75442 z"
       id="path258" />
    <path
       style="fill:#050505;stroke-width:15.6653"
       d="m 846.15616,846.13014 c -2.87165,0.27909 -8.895,-2.02631 -8.61494,0.83805 0.2798,2.86436 11.47687,-1.20343 8.61494,-0.83805 -10.72505,1.36933 -21.04727,0.47957 -31.58826,1.67606 -4.30825,0.48904 -8.41167,2.3048 -12.71731,2.933 -5.63553,0.82232 -12.63333,-2.26335 -18.05051,-0.41923 -1.34695,0.45887 -3.15882,4.21099 -3.69213,5.02803 -10.73621,16.44852 -11.737,40.18083 -9.84566,59.49858 0.5881,6.00528 3.46768,11.30927 4.51261,17.17916 1.86589,10.48196 1.46563,26.63722 9.43542,34.77728 16.77075,17.12915 43.78549,14.80949 64.40729,24.72126 17.7909,8.55112 47.51751,24.06632 68.09937,17.59812 8.26705,-2.598 15.25339,-7.8848 21.74257,-13.40807 23.53647,-20.03284 22.08036,-36.52149 14.76858,-64.52661 -3.4394,-13.17341 -4.22615,-23.44436 -11.89686,-35.19628 -5.98891,-9.17532 -17.42733,-16.1238 -25.02449,-23.88325 -5.4407,-5.55694 -10.54148,-13.49934 -17.22999,-17.59816 -15.3089,-9.38162 -35.91549,-6.11462 -52.92063,-8.38012 z"
       id="path260" />
    <path
       style="fill:#000000;stroke-width:15.6653"
       d="m 754.67326,642.91326 c -2.87165,1.11736 -6.09709,1.57845 -8.61502,3.35201 -8.89156,6.26317 -9.93209,41.44599 -7.38425,52.37552 1.67075,7.16726 7.72038,14.61967 13.9481,18.43613 12.24952,7.5068 31.31906,6.61248 45.12606,11.31315 12.43221,4.2326 32.79297,13.19412 45.94661,5.86608 11.72577,-6.53256 17.5654,-17.69309 24.61421,-28.49227 12.16066,-18.63082 23.98096,-41.39195 3.6922,-58.66057 -3.73984,-3.18316 -6.89246,-7.9232 -11.48666,-10.05609 -12.75504,-5.92164 -25.13437,-2.81854 -38.56232,-4.19006 -7.30171,-0.7458 -14.74987,-2.51403 -22.15284,-2.51403 -8.05932,0 -15.94203,0.93263 -23.38353,4.19005 -12.42545,5.439 -4.48266,7.61357 -21.74256,8.38008 z"
       id="path262" />
    <path
       style="fill:#666666;stroke-width:15.6653"
       d="m 833.43885,787.05064 c -7.36539,5.72624 -8.89072,10.14141 -11.8969,17.59816 -1.84601,4.57886 -2.05116,7.64273 -2.05116,12.5701 0,1.80946 -0.6663,5.00291 0,6.70405 3.14652,8.0345 25.47885,7.33675 31.58822,3.77105 9.50601,-5.54807 15.99927,-16.9511 15.99927,-27.65426 0,-4.17248 -0.3539,-7.51317 -4.51261,-9.63709 -4.36575,-2.22952 -23.25285,-2.15209 -29.12682,-3.35201 z"
       id="path390" />
    <path
       style="fill:#666666;stroke-width:15.6653"
       d="m 881.84683,727.13302 c -10.24879,0.52864 -21.75519,2.94337 -29.94734,9.63713 -7.21532,5.89561 -9.68134,13.91005 -12.3071,22.62619 -1.83988,6.10749 -2.19848,15.36341 -1.23069,21.78826 0.65911,4.37565 27.06923,3.93058 30.76775,2.514 4.82046,-1.84627 11.18694,-5.55992 14.76855,-9.21805 5.88587,-6.01166 7.83363,-17.99722 8.61501,-25.97832 1.34612,-13.74919 3.57639,-13.43446 -10.66618,-21.36921 z"
       id="path455" />
    <path
       style="fill:#666666;stroke-width:15.6653"
       d="m 1257.214,989.01051 c -4.9891,0.45178 -11.0603,-1.68285 -15.9992,0.41923 -10.189,4.33612 -15.1929,15.95096 -19.6914,25.14026 -5.8289,11.907 -12.8217,23.2634 -15.589,36.4533 -4.8623,23.1753 -6.2061,60.0146 -2.4614,82.9629 2.2486,13.7803 7.4835,25.3431 13.5378,37.7103 5.5337,11.3039 11.132,20.8123 20.9221,29.3303 18.9012,16.4451 70.5209,24.2458 94.3546,20.1121 17.8244,-3.0914 34.703,-10.8576 52.5103,-13.8271 33.1754,-5.5321 71.4826,-7.9643 102.1492,-23.0453 10.6849,-5.2544 20.7534,-12.497 30.7677,-18.8551 10.4931,-6.6621 20.6578,-13.0197 29.9473,-21.3692 19.6078,-17.6235 26.8028,-61.6453 8.6151,-82.5437 -9.7976,-11.2578 -23.0956,-14.3646 -36.5112,-19.6932 -34.9112,-13.8668 -72.3456,-19.9426 -107.4821,-33.1013 -24.4252,-9.1473 -60.9598,-22.8317 -86.5601,-26.39724 -5.2117,-0.72593 -10.4085,0.11012 -15.5891,-0.41927 -10.1995,-1.04179 -22.9549,-3.16499 -33.2292,-1.25702 -5.3725,0.99766 -15.3442,6.78163 -19.6914,8.38011 z"
       id="path457" />
    <path
       style="fill:#666666;stroke-width:15.6653"
       d="m 1660.8876,849.48219 c -2.8717,1.11736 -9.7352,0.48783 -8.615,3.35204 1.1202,2.8644 11.2413,-4.9615 8.615,-3.35204 -4.6591,2.85519 -10.0095,4.43685 -14.7686,7.12305 -1.2615,0.71209 -3.6309,5.23452 -4.5126,6.28505 -6.2139,7.40448 -10.8188,12.70315 -12.7174,23.04528 -4.2352,23.07107 2.6615,36.62596 5.7434,58.66052 1.3161,9.41013 1.373,21.9335 8.615,29.33025 25.2363,25.77556 76.2435,11.82509 94.3546,-15.92214 15.9282,-24.40295 18.0509,-76.67698 1.6409,-101.81796 -3.826,-5.86167 -14.3373,-6.88961 -20.1016,-9.63706 -6.5027,-3.09943 -11.3285,-10.21265 -18.871,-11.31307 -17.7451,-2.58924 -25.5841,6.89296 -39.3827,14.24608 z"
       id="path680" />
    <path
       style="fill:#008000;stroke-width:20.9457"
       d="m 986.3026,1209.4065 c -1.17536,-5.4064 8.34721,-73.4713 4.34024,-80.0082 -3.74526,-6.1096 -49.01563,6.349 -36.89172,-3.5401 3.35793,-2.739 5.015,-14.2749 6.9443,-19.1171 5.81623,-14.5972 12.96803,-27.7726 18.66289,-42.4821 3.95842,-10.2245 6.9731,-22.7043 12.15253,-31.1537 1.63431,-2.6661 -30.3814,1.3923 -30.3814,3.5403 0,2.3091 2.22011,-3.0499 3.03809,-4.9564 9.96968,-23.234 21.41634,-44.63874 31.24949,-67.97151 2.65465,-6.299 5.49738,-12.50809 7.81238,-19.11692 1.0337,-2.95114 3.4721,-11.87604 3.4721,-8.49654 0,25.98722 24.1147,41.72841 32.9856,65.84747 2.1614,5.8766 4.8814,13.6859 7.3783,19.117 1.0433,2.2692 5.2377,6.3724 3.4722,6.3724 -2.51,0 -4.0723,-2.2204 -6.5103,-2.8322 -4.6821,-1.1751 -9.9986,0 -14.7567,0 -5.2462,0 -8.8254,-2.1241 -8.2464,-2.1241 7.6725,0 24.3952,61.3625 32.1175,75.76 2.5748,4.8003 5.2639,17.0533 7.8124,19.825 0.7624,0.8293 3.0381,6.7271 3.0381,6.3723 0,-1.931 -32.8005,-2.1241 -38.1937,-2.1241 -0.4933,0 -6.0113,-0.4245 -6.0763,0 -1.2098,7.8944 2.17,45.3507 2.17,57.351 0,4.7203 0,9.4405 0,14.1607 0,1.0506 1.5275,2.8321 0.8681,2.8321 -3.4916,0 -21.913,-4.172 -25.60719,0 -3.66585,4.1403 -7.23366,8.4965 -10.85051,12.7447 z"
       id="path745" />
    <path
       style="fill:#008000;stroke-width:20.9457"
       d="m 878.23864,295.34611 c -1.17533,-5.40641 8.34725,-73.47137 4.3402,-80.00821 -3.74518,-6.1096 -49.01555,6.34897 -36.89171,-3.54013 3.358,-2.73895 5.01503,-14.27488 6.94437,-19.11705 5.81615,-14.59721 12.96795,-27.77259 18.66285,-42.48216 3.95842,-10.22444 6.9731,-22.70425 12.15257,-31.15366 1.63431,-2.66615 -30.3814,1.39221 -30.3814,3.54025 0,2.30918 2.22014,-3.04992 3.03813,-4.95635 9.9696,-23.234011 21.4163,-44.638763 31.24948,-67.97153 2.65462,-6.299005 5.49738,-12.508073 7.81231,-19.116931 1.03373,-2.951113 3.47218,-11.876005 3.47218,-8.496538 0,25.987215 24.11466,41.728401 32.98554,65.847503 2.16138,5.876624 4.88137,13.685866 7.37836,19.116936 1.04322,2.26926 5.23769,6.37239 3.47215,6.37239 -2.51003,0 -4.07231,-2.2203 -6.51031,-2.83215 -4.68204,-1.17507 -9.99861,0 -14.75672,0 -5.24616,0 -8.82535,-2.12414 -8.24636,-2.12414 7.67252,0 24.39521,61.3625 32.11749,75.76002 2.57476,4.80036 5.26382,17.05333 7.81238,19.82498 0.76244,0.82933 3.03812,6.72718 3.03812,6.37233 0,-1.93102 -32.80049,-2.12403 -38.19374,-2.12403 -0.49323,0 -6.01125,-0.42457 -6.07629,0 -1.20977,7.89434 2.17008,45.35061 2.17008,57.35097 0,4.72023 0,9.44047 0,14.1607 0,1.0506 1.5275,2.83208 0.86805,2.83208 -3.49166,0 -21.91301,-4.17202 -25.60722,0 -3.66581,4.14032 -7.23366,8.49654 -10.85051,12.74472 z"
       id="path745-7" />
    <path
       style="fill:#008000;stroke-width:20.9457"
       d="m 1655.7985,815.29125 c -1.1753,-5.40638 8.3473,-73.47135 4.3402,-80.00821 -3.7452,-6.1096 -49.0155,6.34897 -36.8917,-3.54013 3.358,-2.73892 5.015,-14.27493 6.9443,-19.1171 5.8162,-14.5972 12.968,-27.77257 18.6629,-42.48216 3.9585,-10.22446 6.9731,-22.70426 12.1526,-31.15366 1.6343,-2.66613 -30.3814,1.39222 -30.3814,3.54024 0,2.30917 2.2201,-3.04991 3.0381,-4.95633 9.9696,-23.23404 21.4163,-44.63876 31.2495,-67.97153 2.6546,-6.299 5.4974,-12.50807 7.8123,-19.11693 1.0337,-2.95111 3.4722,-11.876 3.4722,-8.49654 0,25.98722 24.1147,41.72841 32.9855,65.84751 2.1614,5.8766 4.8814,13.68584 7.3784,19.11692 1.0432,2.26927 5.2377,6.37239 3.4721,6.37239 -2.51,0 -4.0723,-2.22031 -6.5103,-2.83215 -4.682,-1.17507 -9.9986,0 -14.7567,0 -5.2462,0 -8.8253,-2.12415 -8.2464,-2.12415 7.6726,0 24.3953,61.3625 32.1175,75.76004 2.5748,4.80035 5.2639,17.05334 7.8124,19.82496 0.7625,0.82934 3.0382,6.72725 3.0382,6.3724 0,-1.93109 -32.8005,-2.12407 -38.1938,-2.12407 -0.4932,0 -6.0112,-0.42459 -6.0763,0 -1.2098,7.89439 2.1701,45.35063 2.1701,57.35101 0,4.72025 0,9.44045 0,14.1607 0,1.0506 1.5275,2.83208 0.868,2.83208 -3.4916,0 -21.913,-4.17203 -25.6072,0 -3.6658,4.14031 -7.2336,8.49653 -10.8505,12.74471 z"
       id="path745-9" />
    <path
       style="fill:#000000;stroke-width:16.6234"
       d="m 708.77455,77.8782 c -41.71589,11.270245 -46.03043,58.22132 -34.20466,94.40001 4.39598,13.44859 9.71371,26.41315 22.66873,33.41252 10.41444,5.62669 34.78807,18.92075 46.16398,16.82821 22.42784,-4.12543 30.33543,-17.25315 47.43339,-29.04897 13.3518,-9.21139 56.03127,-16.722 61.1057,-27.30613 10.14841,-21.16765 4.15364,-59.4525 3.15598,-82.954964 -0.6478,-15.259677 3.68558,-30.347732 1.67809,-46.009172 -1.37512,-10.727677 -16.90914,-44.2126674 -23.49454,-51.143425 -6.27347,-6.602458 -41.00852,-0.02112 -49.28502,2.650552 -7.99637,2.5816449 -18.14882,4.4496446 -24.6383,10.32267466 C 745.14796,11.889567 735.38261,48.998436 723.30153,67.031071 c -1.39455,2.081549 -3.84318,1.776886 -5.85018,2.836001 -3.47196,1.832118 -5.7315,5.401213 -8.6768,8.011128 z"
       id="path769" />
    <path
       style="fill:#000000;stroke-width:15.6653"
       d="m 577.86093,152.89202 c -17.64972,7.58494 -33.37556,21.89631 -41.43397,39.38637 -4.86604,10.5613 -16.35974,42.42102 -10.66617,54.05149 2.81452,5.74934 13.03827,10.41429 18.05043,13.82714 33.1111,22.54577 86.30308,12.8326 113.63576,-15.08414 4.93208,-5.03745 10.45426,-12.33513 12.30714,-19.27418 3.34075,-12.51128 4.67491,-37.46662 -5.74336,-47.34745 -5.40937,-5.13032 -11.50386,-9.65471 -16.81973,-15.08414 -6.95902,-7.10773 -11.77159,-15.2608 -21.74257,-18.85517 -15.07659,-5.43485 -34.60915,1.46406 -47.58753,8.38008 z"
       id="path773" />
    <path
       style="fill:#4d4d4d;stroke-width:15.6653"
       d="m 997.53378,74.119289 c -19.12587,1.435824 -32.69164,10.401014 -43.4852,25.559236 -9.99577,14.037895 -22.15281,38.757145 -22.15281,55.727515 0,2.68479 -1.57589,8.88255 1.23072,10.4751 4.86557,2.76083 11.09174,2.09502 16.40952,2.09502 18.94767,0 31.35709,-7.49344 46.76705,-17.17916 4.08164,-2.56544 7.11294,-6.5655 11.48664,-8.79908 9.2368,-4.71709 19.5571,-6.85112 28.7166,-11.73211 10.188,-5.42908 20.1453,-15.40119 27.8962,-23.88322 6.837,-7.482005 12.101,-19.277553 9.0252,-29.749282 -1.292,-4.39873 -6.7453,-8.90656 -9.4355,-12.57011 -2.6263,-3.576581 -5.4105,-6.870079 -9.8457,-8.380079 -11.7859,-4.012607 -29.8251,-0.292889 -41.0237,4.609043 -5.806,2.541468 -12.205,10.370828 -15.58902,13.827127 z"
       id="path871" />
    <path
       style="fill:#4d4d4d;stroke-width:15.6653"
       d="m 569.65619,296.61036 c -3.41866,-2.2347 -6.61772,-4.84609 -10.25594,-6.70408 -1.00292,-0.51214 -5.73563,0 -6.97404,0 -21.89664,0 -35.7265,39.12469 -41.84421,54.05151 -4.79814,11.70718 -9.3708,23.23098 -11.89689,35.61534 -2.70885,13.28037 -8.67018,27.53082 -5.74332,41.48137 3.16669,15.09365 28.89691,33.95838 42.25446,39.80538 6.64452,2.90851 17.48064,3.42478 24.61424,2.51402 4.71298,-0.60171 10.02258,-5.22554 13.53783,-7.96107 22.64703,-17.62362 30.967,-49.66006 35.69064,-76.67771 1.38437,-7.91799 0.52524,-15.96013 1.23071,-23.88323 0.7651,-8.59604 3.62869,-22.55713 0,-30.58728 -7.4462,-16.47821 -23.78663,-25.67121 -40.61348,-27.65425 z"
       id="path873" />
    <path
       style="fill:#4d4d4d;stroke-width:15.6653"
       d="m 550.37503,500.24625 c -22.59422,2.41927 -63.87133,-8.08946 -81.22701,9.63709 -10.6757,10.90383 -14.10937,29.90689 -18.05043,43.9954 -2.18978,7.82798 0.33647,17.13676 -1.23073,25.14023 -1.01494,5.18319 -5.91857,10.41413 -8.20473,15.08416 -3.36555,6.8749 -6.51019,15.54519 -8.20476,23.04516 -3.67176,16.25097 -8.6666,49.6142 2.0512,63.68868 4.3874,5.76149 9.72005,9.50705 15.17877,14.24608 9.78032,8.49091 21.1696,17.33499 34.45995,19.27422 29.57704,4.31557 86.89672,-31.94106 102.14911,-55.30856 4.08516,-6.25872 7.70348,-13.761 9.84572,-20.95021 7.13212,-23.93503 3.62567,-48.49257 5.33307,-72.90664 1.24179,-17.75661 4.52202,-44.64286 -8.20478,-59.49856 -5.1027,-5.95629 -19.12349,-5.93342 -26.25518,-4.60905 -1.48486,0.27573 -7.19672,5.50324 -8.20474,5.02805 -3.35071,-1.57952 -6.29031,-3.91071 -9.43546,-5.86605 z"
       id="path960" />
    <path
       style="fill:#000000;stroke-width:15.6653"
       d="m 75.320155,602.06419 c -20.708077,-2.26916 -36.285602,8.91348 -51.689904,21.36923 -38.665213,31.264 -51.378022,84.14644 -52.51038,131.56721 -0.390674,16.35412 1.893667,31.60197 3.692124,47.76646 2.596638,23.3388 2.113128,47.36548 12.307139,69.13563 14.3621692,30.67186 48.146941,57.81385 80.406483,68.29766 12.526242,4.07077 26.00439,4.2053 38.972553,5.447 9.45508,0.90541 20.88134,2.50676 30.35757,0.83805 14.58171,-2.56782 27.85404,-14.03752 41.02375,-20.5312 12.13965,-5.98579 26.90263,-11.31142 40.20326,-13.82715 11.81031,-2.23382 24.50747,-3.71848 36.51111,-4.19006 14.61003,-0.57416 29.54599,1.25521 43.89542,-1.67598 14.58825,-2.98004 50.89475,-41.53308 57.43323,-54.88952 7.55994,-15.44298 5.74333,-33.15285 5.74333,-49.86145 0,-24.41732 -0.90907,-48.36996 -7.38428,-72.06863 -6.02264,-22.04234 -21.70932,-41.33052 -30.35757,-62.43162 -11.08244,-27.04046 -18.16227,-73.23806 -43.48516,-91.34286 -14.80232,-10.58305 -71.78728,-4.60905 -90.25223,-4.60905 -6.40617,0 -13.92708,-0.79175 -20.10162,1.67601 -5.19532,2.07639 -9.75587,5.63185 -15.17879,7.12307 -9.59243,2.63776 -19.2412,4.69562 -28.71661,7.54207 -3.82796,1.14992 -20.76765,1.93724 -22.9733,4.19005 -6.109572,6.24009 -19.727686,9.28323 -27.896125,10.47508 z"
       id="path962" />
    <path
       style="fill:none;stroke:#502d16;stroke-width:15.6663;stroke-dasharray:31.3326, 15.6663;stroke-dashoffset:0;stroke-opacity:1;marker-start:url(#TriangleStart)"
       d="m 1758.1139,1108.6399 c -19.2019,-8.7618 -26.0184,-28.6496 -40.6136,-41.9004 -9.3912,-8.5262 -22.0436,-12.1753 -31.5883,-20.5312 -10.0404,-8.7899 -14.8729,-20.1807 -26.2551,-27.6542 -13.079,-8.5876 -28.618,-13.318 -43.0748,-18.85521 -2.7226,-1.04273 -5.0909,-3.42552 -7.7947,-4.60907 -13.108,-5.73777 -27.2246,-10.00488 -40.6135,-15.08409 -27.7102,-10.51236 -56.7706,-17.50078 -85.3293,-25.14026 -18.8053,-5.03045 -36.5034,-11.85722 -54.9718,-17.59817 -22.6936,-7.0543 -46.4032,-12.00736 -69.7404,-16.34114 -44.9667,-8.35051 -90.325,-14.66192 -135.3783,-22.62619 -16.6004,-2.93459 -33.5689,-4.39066 -50.049,-7.96111 -11.7451,-2.54466 -22.2141,-8.56016 -33.6394,-10.89407 -7.0738,-1.44499 -14.3503,-1.77423 -21.3324,-3.77109 -39.1922,-11.20827 -76.1766,-29.26315 -115.2767,-41.06233 -45.98571,-13.87705 -93.83898,-25.97786 -141.53185,-32.26329 -19.18762,-2.52878 -38.59805,-3.18527 -57.84351,-5.02807 -19.79534,-1.89548 -39.83921,-5.56655 -59.89464,-3.35204 -15.35272,1.69522 -30.64279,4.92929 -45.94661,7.1231 -19.00234,2.72399 -54.56832,5.86947 -71.79153,14.66508 -8.21314,4.19436 -14.10672,11.70523 -21.74257,16.76015 -14.26678,9.4446 -29.89661,18.17727 -45.53636,25.14027 -38.36619,17.08106 -79.48091,27.47764 -118.5586,42.73839 -13.69472,5.34811 -25.73575,14.33957 -38.56232,21.36921 -25.9839,14.24054 -66.01621,21.20052 -95.17507,28.07327 -15.12296,3.56449 -29.49151,9.50403 -44.30564,13.82715 -2.13395,0.62273 -18.53951,6.19985 -11.07641,2.933"
       id="path964" />
    <path
       style="fill:none;stroke:#502d16;stroke-width:15.6662;stroke-dasharray:31.3326, 15.6662;stroke-dashoffset:0;stroke-opacity:1;marker-end:url(#marker2013)"
       d="m 1415.1554,940.61931 c 25.8451,-2.59979 51.9347,-9.97158 75.0734,-21.78818 7.4983,-3.82921 15.117,-10.07122 22.9734,-12.9891 18.7555,-6.96594 36.4031,-15.22933 53.741,-25.55927 2.6614,-1.58562 7.1669,-3.00055 9.4355,-5.02803 9.3131,-8.32301 20.2267,-15.02956 30.7677,-22.20723 8.5908,-5.84948 16.1684,-13.11235 24.6144,-19.27414 5.8257,-4.25014 8.0264,-12.83504 13.5379,-17.5982 10.2099,-8.82383 21.155,-17.03434 31.5882,-25.5592 17.9808,-14.69201 33.1635,-33.82462 47.5875,-51.95651 7.0226,-8.82782 14.5967,-17.14967 20.5118,-26.81625 1.6216,-2.64988 2.0321,-6.25567 3.6922,-8.79905 0.082,-0.12483 2.4008,-2.3588 1.641,-2.51403 -2.8359,-0.57948 -4.7488,3.17434 -6.5638,5.02803"
       id="path1949" />
    <path
       style="fill:none;stroke:#502d16;stroke-width:15.6662;stroke-dasharray:31.3326, 15.6662;stroke-dashoffset:0;stroke-opacity:1"
       d="m 764.92916,781.39787 c -19.62429,0.0916 -39.11113,-1.67715 -56.20251,-12.15112 -23.2507,-14.24853 -33.56269,-41.01104 -37.74182,-66.62164 -0.39186,-2.40187 -2.02871,-4.69218 -2.46142,-7.12306 -4.34808,-24.42535 -7.34583,-51.93056 -4.92289,-76.6777 0.72046,-7.35873 3.44824,-14.31037 5.33307,-21.36921 3.72479,-13.94927 5.00405,-28.72351 8.61502,-42.73838 11.66446,-45.27215 20.43964,-90.5343 39.79301,-133.66225 8.99025,-20.03422 20.38333,-40.23692 32.40875,-58.66054 5.2822,-8.0926 11.70157,-15.33469 16.40951,-23.88322 6.85662,-12.45009 17.10541,-23.20973 23.38357,-36.03434 5.01495,-10.24432 12.64944,-29.67994 20.51184,-37.71036 0.99535,-1.01664 8.25287,-14.11892 7.79449,-14.66513 -1.98424,-2.36449 -5.21319,-4.85618 -7.38425,-6.70406"
       id="path1951" />
    <ellipse
       style="fill:#ff0000;stroke:none;stroke-width:15.6662;stroke-dasharray:31.3326, 15.6662;stroke-dashoffset:0;stroke-opacity:1"
       id="path3073"
       cx="201.25209"
       cy="945.44928"
       rx="12.472454"
       ry="12.440815" />
    <ellipse
       style="fill:#ff0000;stroke:none;stroke-width:15.6662;stroke-dasharray:31.3326, 15.6662;stroke-dashoffset:0;stroke-opacity:1"
       id="path3073-9"
       cx="654.41791"
       cy="263.27798"
       rx="12.472454"
       ry="12.440815" />
    <ellipse
       style="fill:#ff0000;stroke:none;stroke-width:15.6662;stroke-dasharray:31.3326, 15.6662;stroke-dashoffset:0;stroke-opacity:1"
       id="path3073-4"
       cx="712.62274"
       cy="234.2494"
       rx="12.472454"
       ry="12.440815" />
    <ellipse
       style="fill:#ff0000;stroke:none;stroke-width:15.6662;stroke-dasharray:31.3326, 15.6662;stroke-dashoffset:0;stroke-opacity:1"
       id="path3073-94"
       cx="799.92993"
       cy="209.36781"
       rx="12.472454"
       ry="12.440815" />
    <ellipse
       style="fill:#ff0000;stroke:none;stroke-width:15.6662;stroke-dasharray:31.3326, 15.6662;stroke-dashoffset:0;stroke-opacity:1"
       id="path3073-1"
       cx="789.53619"
       cy="746.39636"
       rx="12.472454"
       ry="12.440815" />
    <ellipse
       style="fill:#ff0000;stroke:none;stroke-width:15.6662;stroke-dasharray:31.3326, 15.6662;stroke-dashoffset:0;stroke-opacity:1"
       id="path3073-6"
       cx="974.54425"
       cy="918.49426"
       rx="12.472454"
       ry="12.440815" />
    <ellipse
       style="fill:#ff0000;stroke:none;stroke-width:15.6662;stroke-dasharray:31.3326, 15.6662;stroke-dashoffset:0;stroke-opacity:1"
       id="path3073-998"
       cx="912.18207"
       cy="1028.3881"
       rx="12.472454"
       ry="12.440815" />
    <ellipse
       style="fill:#ff0000;stroke:none;stroke-width:15.6662;stroke-dasharray:31.3326, 15.6662;stroke-dashoffset:0;stroke-opacity:1"
       id="path3073-0"
       cx="1034.8279"
       cy="798.23303"
       rx="12.472454"
       ry="12.440815" />
    <ellipse
       style="fill:#ff0000;stroke:none;stroke-width:15.6662;stroke-dasharray:31.3326, 15.6662;stroke-dashoffset:0;stroke-opacity:1"
       id="path3073-8"
       cx="1095.1113"
       cy="835.55548"
       rx="12.472454"
       ry="12.440815" />
    <ellipse
       style="fill:#ff0000;stroke:none;stroke-width:15.6662;stroke-dasharray:31.3326, 15.6662;stroke-dashoffset:0;stroke-opacity:1"
       id="path3073-988"
       cx="1244.9624"
       cy="858.23596"
       rx="12.472454"
       ry="12.440815" />
    <ellipse
       style="fill:#ff0000;stroke:none;stroke-width:15.6662;stroke-dasharray:31.3326, 15.6662;stroke-dashoffset:0;stroke-opacity:1"
       id="path3073-3"
       cx="1411.0802"
       cy="854.21667"
       rx="12.472454"
       ry="12.440815" />
  </g>
</svg>
