<?xml version="1.0" encoding="UTF-8" standalone="no"?>
<!-- Created with Inkscape (http://www.inkscape.org/) -->

<svg
   version="1.1"
   id="svg1236"
   width="1920"
   height="1280"
   viewBox="0 0 1920 1280"
   sodipodi:docname="miniMeTopo.svg"
   inkscape:version="1.2 (dc2aedaf03, 2022-05-15)"
   xmlns:inkscape="http://www.inkscape.org/namespaces/inkscape"
   xmlns:sodipodi="http://sodipodi.sourceforge.net/DTD/sodipodi-0.dtd"
   xmlns:xlink="http://www.w3.org/1999/xlink"
   xmlns="http://www.w3.org/2000/svg"
   xmlns:svg="http://www.w3.org/2000/svg">
  <defs
     id="defs1240">
    <rect
       x="1050.0879"
       y="1067.6626"
       width="19.771529"
       height="101.05448"
       id="rect753" />
    <rect
       x="1012.8155"
       y="1005.0485"
       width="69.902913"
       height="69.902913"
       id="rect697" />
  </defs>
  <sodipodi:namedview
     id="namedview1238"
     pagecolor="#ffffff"
     bordercolor="#000000"
     borderopacity="0.25"
     inkscape:showpageshadow="2"
     inkscape:pageopacity="0.0"
     inkscape:pagecheckerboard="0"
     inkscape:deskcolor="#d1d1d1"
     showgrid="false"
     inkscape:zoom="1.2875"
     inkscape:cx="1421.7476"
     inkscape:cy="896.31068"
     inkscape:window-width="1920"
     inkscape:window-height="1027"
     inkscape:window-x="-8"
     inkscape:window-y="379"
     inkscape:window-maximized="1"
     inkscape:current-layer="g1242" />
  <g
     inkscape:groupmode="layer"
     inkscape:label="Image"
     id="g1242">
    <image
       width="1920"
       height="1280"
       preserveAspectRatio="none"
       xlink:href="miniMeTopo.jpg"
       id="image1244" />
    <path
       style="fill:none;stroke:#812c19;stroke-width:10;stroke-dasharray:none"
       d="m 1042.3301,1022.1359 c 0,0 12.4272,-287.37862 -13.9806,-458.2524 C 1001.9417,393.00971 885.43689,31.067961 885.43689,31.067961 l -7.76699,-3.106796"
       id="path1248" />
    <path
       style="fill:none;stroke:#191e81;stroke-width:10;stroke-dasharray:none;stroke-opacity:1"
       d="m 388.34951,966.21359 c 0,0 -60.58252,-391.45631 1.5534,-493.98058 C 452.03883,369.70874 723.8835,320 804.66019,211.26214 885.43689,102.52427 874.56311,27.961165 874.56311,27.961165 l 3.10679,-4.660194"
       id="path1730" />
    <path
       style="fill:none;stroke:#318119;stroke-width:10;stroke-dasharray:none;stroke-opacity:1"
       d="m 389.90291,1036.1165 c 0,0 -48.15534,-646.21359 -132.03883,-672.62135 -83.8835,-26.40777 -122.71845,-12.42719 -3.1068,-63.68932 C 374.36893,248.54369 535.92233,160 535.92233,160 l -3.1068,-4.66019"
       id="path1840" />
    <path
       style="fill:none;stroke:#81197a;stroke-width:10;stroke-dasharray:none;stroke-opacity:1"
       d="m 1188.3495,613.59223 c -85.4369,-228.34951 -118.0582,-231.45631 -99.4175,-318.4466 18.6408,-86.99029 116.5049,-139.80582 116.5049,-139.80582 h 1.5534"
       id="trust" />
    <path
       style="fill:none;stroke:#AD9465;stroke-width:10;stroke-dasharray:none;stroke-opacity:1"
       d="m 1741.3592,984.85437 c 0,0 18.6408,-287.37864 -32.6213,-360.38835 -112.9838,-160.9164 -147.5729,-400.7767 -147.5729,-400.7767 l 3.1068,9.32039"
       id="tylerDurten"
       sodipodi:nodetypes="cscc" />
    <ellipse
       style="fill:#ffffff;stroke:#758119;stroke-width:10"
       id="path291"
       cx="711.4563"
       cy="692.03882"
       rx="86.990288"
       ry="81.553398" />
    <path
       style="fill:#ffffff;stroke:#758119;stroke-width:10"
       d="m 1489.7087,879.2233 -24.8543,-483.1068 1.5534,3.1068"
       id="path410" />
    <path
       style="fill:#ffffff;stroke:#758119;stroke-width:10"
       d="M 4.6601942,-4.6601942 15.533981,481.5534 v 1.5534"
       id="path424" />
    <path
       style="fill:#ffffff;stroke:#758119;stroke-width:10"
       d="M 7.7669903,1273.7864 10.873786,848.15534 v 0"
       id="path426" />
    <path
       style="fill:#ffffff;stroke:#758119;stroke-width:10"
       d="M 0.0,600.0 1920.0,0.0 v 0"
       id="poopie" />
    <text
       xml:space="preserve"
       id="text695"
       style="white-space:pre;shape-inside:url(#rect697);fill:#ffffff;stroke:#758119;stroke-width:10"
       transform="translate(70.298771,445.95783)" />
    <text
       xml:space="preserve"
       id="text751"
       style="fill:#ffffff;stroke:#758119;stroke-width:10;white-space:pre;shape-inside:url(#rect753)" />
    <text
       xml:space="preserve"
       style="font-style:normal;font-variant:normal;font-weight:normal;font-stretch:normal;font-size:192px;font-family:Arial;-inkscape-font-specification:Arial;fill:#ffffff;stroke:#758119;stroke-width:5;stroke-dasharray:none"
       x="1426.4078"
       y="954.36896"
       id="text759"><tspan
         sodipodi:role="line"
         id="tspan757"
         x="1426.4078"
         y="954.36896"
         style="font-style:normal;font-variant:normal;font-weight:normal;font-stretch:normal;font-family:Arial;-inkscape-font-specification:Arial;fill:#fefefe;fill-opacity:1;stroke:#000000;stroke-opacity:1;stroke-width:5;stroke-dasharray:none">1</tspan></text>
  </g>
</svg>
