<?xml version="1.0" encoding="UTF-8" standalone="no"?>
<!-- Created with Inkscape (http://www.inkscape.org/) -->

<svg
   version="1.1"
   id="svg132"
   width="1920"
   height="1280"
   viewBox="0 0 1920 1280"
   sodipodi:docname="miniMe2.svg"
   inkscape:version="1.2 (dc2aedaf03, 2022-05-15)"
   xml:space="preserve"
   xmlns:inkscape="http://www.inkscape.org/namespaces/inkscape"
   xmlns:sodipodi="http://sodipodi.sourceforge.net/DTD/sodipodi-0.dtd"
   xmlns:xlink="http://www.w3.org/1999/xlink"
   xmlns="http://www.w3.org/2000/svg"
   xmlns:svg="http://www.w3.org/2000/svg"><defs
     id="defs136"><marker
       style="overflow:visible"
       id="Arrow1"
       refX="0"
       refY="0"
       orient="auto-start-reverse"
       inkscape:stockid="Arrow1"
       markerWidth="4.0606604"
       markerHeight="6.7071066"
       viewBox="0 0 4.0606602 6.7071068"
       inkscape:isstock="true"
       inkscape:collect="always"
       preserveAspectRatio="xMidYMid"><path
         style="fill:none;stroke:context-stroke;stroke-width:1;stroke-linecap:butt"
         d="M 0.60355339,3 -2.3964466,0 0.60355339,-3"
         id="path5057"
         sodipodi:nodetypes="ccc" /></marker></defs><sodipodi:namedview
     id="namedview134"
     pagecolor="#ffffff"
     bordercolor="#000000"
     borderopacity="0.25"
     inkscape:showpageshadow="2"
     inkscape:pageopacity="0.0"
     inkscape:pagecheckerboard="0"
     inkscape:deskcolor="#d1d1d1"
     showgrid="false"
     inkscape:zoom="0.5"
     inkscape:cx="1389"
     inkscape:cy="664"
     inkscape:window-width="1920"
     inkscape:window-height="1027"
     inkscape:window-x="-8"
     inkscape:window-y="379"
     inkscape:window-maximized="1"
     inkscape:current-layer="g138" /><g
     inkscape:groupmode="layer"
     inkscape:label="Image"
     id="g138"><image
       width="1920"
       height="1280"
       preserveAspectRatio="none"
       xlink:href="miniMeTopo.jpg"
       id="image5719"
       x="2"
       y="2" /><path
       style="fill:none;stroke:#ff0000;stroke-width:10;stroke-dasharray:60, 60;marker-end:url(#Arrow1)"
       d="M 402.3301,1090.4854 371.26214,584.07767 c 0,0 -5.61004,-119.71753 -60.58253,-195.72816 C 213.46208,253.92654 434.95146,200.38835 434.95146,200.38835 l -3.1068,1.5534"
       id="path302"
       sodipodi:nodetypes="ccscc" /><path
       style="fill:none;stroke:#ff0000;stroke-width:10;stroke-dasharray:60, 60"
       d="m 400.7767,1087.3786 c 0,0 -17.08738,-225.24268 -29.51456,-529.7087 C 740.97087,321.5534 827.96117,402.3301 866.79612,290.48544 905.63107,178.64078 873.00971,26.407767 873.00971,26.407767 l 1.5534,6.213592"
       id="path355"
       sodipodi:nodetypes="ccscc" /><path
       style="fill:none;stroke:#ff0000;stroke-width:10;stroke-dasharray:none"
       d="m 998.83495,1104.466 c 0,0 104.07765,-271.84464 51.26215,-495.53396 C 997.28155,385.24272 879.2233,24.854369 879.2233,24.854369 h -1.5534"
       id="path406" /><path
       style="fill:none;stroke:#ff0000;stroke-width:10;stroke-dasharray:none"
       d="m 1177.4757,612.03883 c 0,0 -122.7184,-243.88349 -88.5437,-330.87378 34.1748,-86.99029 121.1651,-133.59223 121.1651,-133.59223 l -1.5534,-6.2136"
       id="path963" /><path
       style="fill:none;stroke:#ff0000;stroke-width:10;stroke-dasharray:none"
       d="m 1714.9515,650.87379 c 0,0 -128.9321,-35.72816 -150.6797,-130.48544 -21.7475,-94.75728 -23.3009,-298.25243 -23.3009,-298.25243 v 0"
       id="path965" /><ellipse
       style="fill:#ffffff;fill-opacity:1;stroke:#ff0000;stroke-width:10;stroke-dasharray:none;stroke-opacity:1"
       id="path1264"
       cx="309.90289"
       cy="384.466"
       rx="34.951458"
       ry="29.514563" /><ellipse
       style="fill:#ffffff;fill-opacity:1;stroke:#ff0000;stroke-width:10;stroke-dasharray:none;stroke-opacity:1"
       id="path2046"
       cx="1064.8545"
       cy="667.96118"
       rx="33.39806"
       ry="34.174759" /><ellipse
       style="fill:#ffffff;fill-opacity:1;stroke:#ff0000;stroke-width:10;stroke-dasharray:none;stroke-opacity:1"
       id="path2048"
       cx="1099.0292"
       cy="415.534"
       rx="28.737864"
       ry="30.291262" /><ellipse
       style="fill:#ffffff;fill-opacity:1;stroke:#ff0000;stroke-width:10;stroke-dasharray:none;stroke-opacity:1"
       id="path2050"
       cx="1565.0486"
       cy="525.04858"
       rx="28.737864"
       ry="35.728157" /><circle
       style="fill:#ffffff;fill-opacity:1;stroke:#ff0000;stroke-width:10;stroke-dasharray:none;stroke-opacity:1"
       id="path291"
       cx="671.06799"
       cy="404.66016"
       r="27.961164" /><path
       style="fill:none;stroke-width:10.0006;stroke-dasharray:20.0013, 10.0006;stroke:#ff0000"
       d="m 1724,578 -56,-502 4,4"
       id="path4734" /><circle
       style="fill:#ffffff;fill-opacity:1;stroke:#ff0000;stroke-width:10;stroke-dasharray:none;stroke-opacity:1"
       id="path291-0"
       cx="1690"
       cy="292"
       r="27.961164" /></g></svg>
